<svg width="1200" height="580" viewBox="0 0 1200 580" fill="none" xmlns="http://www.w3.org/2000/svg">
<g clip-path="url(#clip0_5_2)">
<rect width="1200" height="580" fill="white"/>
<path d="M443.489 287.418H449.561V297.124H443.489V287.418ZM446.525 265.66C449.561 265.66 452.275 266.151 454.667 267.132C457.09 268.083 458.991 269.432 460.371 271.18C461.751 272.928 462.441 274.998 462.441 277.39C462.441 279.751 461.751 281.821 460.371 283.6C458.991 285.379 457.09 286.759 454.667 287.74C452.275 288.691 449.561 289.166 446.525 289.166C443.52 289.166 440.806 288.691 438.383 287.74C435.991 286.759 434.09 285.379 432.679 283.6C431.299 281.821 430.609 279.751 430.609 277.39C430.609 274.998 431.299 272.928 432.679 271.18C434.09 269.432 435.991 268.083 438.383 267.132C440.806 266.151 443.52 265.66 446.525 265.66ZM446.525 270.49C444.593 270.49 442.876 270.766 441.373 271.318C439.901 271.87 438.736 272.652 437.877 273.664C437.049 274.676 436.635 275.918 436.635 277.39C436.635 278.831 437.049 280.073 437.877 281.116C438.736 282.128 439.901 282.91 441.373 283.462C442.876 284.014 444.593 284.29 446.525 284.29C448.488 284.29 450.205 284.014 451.677 283.462C453.18 282.91 454.345 282.128 455.173 281.116C456.001 280.073 456.415 278.831 456.415 277.39C456.415 275.918 456.001 274.676 455.173 273.664C454.345 272.652 453.18 271.87 451.677 271.318C450.205 270.766 448.488 270.49 446.525 270.49ZM427.297 296.158H465.891V301.126H427.297V296.158ZM472.926 265.246H504.712V270.076H472.926V265.246ZM473.248 277.252H504.344V282.082H473.248V277.252ZM478.354 267.132H484.472V279.782H478.354V267.132ZM493.166 267.132H499.284V279.782H493.166V267.132ZM469.568 285.394H508.116V290.27H469.568V285.394ZM474.26 300.436H503.792V305.358H474.26V300.436ZM474.26 293.122H480.378V302.046H474.26V293.122ZM513.218 267.454H533.596V295.698H513.218V267.454ZM527.57 272.284H519.244V290.914H527.57V272.284ZM539.116 263.498H545.28V306.094H539.116V263.498ZM543.946 279.552H551.444V284.566H543.946V279.552ZM568.874 275.228H577.614V280.104H568.874V275.228ZM585.066 263.452H590.862V291.926H585.066V263.452ZM576.234 264.142H581.938V288.108H576.234V264.142ZM572.968 289.626H578.166V290.408C578.166 292.34 577.798 294.149 577.062 295.836C576.357 297.523 575.299 299.056 573.888 300.436C572.478 301.785 570.73 302.935 568.644 303.886C566.59 304.837 564.228 305.527 561.56 305.956L559.26 301.126C561.1 300.911 562.756 300.543 564.228 300.022C565.7 299.501 566.988 298.887 568.092 298.182C569.196 297.446 570.101 296.664 570.806 295.836C571.512 294.977 572.048 294.088 572.416 293.168C572.784 292.248 572.968 291.328 572.968 290.408V289.626ZM573.796 289.626H579.04V290.408C579.04 291.328 579.209 292.248 579.546 293.168C579.914 294.088 580.451 294.977 581.156 295.836C581.892 296.664 582.797 297.446 583.87 298.182C584.974 298.887 586.262 299.501 587.734 300.022C589.206 300.543 590.862 300.911 592.702 301.126L590.402 305.956C587.734 305.527 585.373 304.837 583.318 303.886C581.264 302.935 579.531 301.785 578.12 300.436C576.71 299.056 575.636 297.523 574.9 295.836C574.164 294.149 573.796 292.34 573.796 290.408V289.626ZM567.034 266.672H572.922C572.922 270.413 572.401 273.817 571.358 276.884C570.346 279.951 568.66 282.68 566.298 285.072C563.968 287.433 560.809 289.488 556.822 291.236L553.924 286.912C557.236 285.501 559.843 283.907 561.744 282.128C563.646 280.319 564.995 278.295 565.792 276.056C566.62 273.787 567.034 271.287 567.034 268.558V266.672ZM556.224 266.672H568.92V271.594H556.224V266.672ZM567.264 274.768V278.908L555.212 280.242L554.476 275.412L567.264 274.768ZM607.209 296.158H645.803V301.172H607.209V296.158ZM610.153 267.132H642.629V272.054H610.153V267.132ZM610.383 284.796H642.491V289.672H610.383V284.796ZM615.949 271.686H622.067V285.256H615.949V271.686ZM630.715 271.686H636.833V285.256H630.715V271.686ZM649.526 296.434H688.12V301.402H649.526V296.434ZM665.718 288.338H671.79V298.412H665.718V288.338ZM653.896 266.212H683.75V280.426H660.014V287.556H653.942V275.642H677.678V271.088H653.896V266.212ZM653.942 285.164H684.716V290.04H653.942V285.164ZM709.46 273.986H716.084V278.908H709.46V273.986ZM713.968 264.28H719.718V289.258H713.968V264.28ZM699.294 269.892H704.078V272.56C704.078 274.921 703.741 277.206 703.066 279.414C702.422 281.591 701.379 283.523 699.938 285.21C698.527 286.897 696.672 288.2 694.372 289.12L691.244 284.428C693.176 283.661 694.725 282.649 695.89 281.392C697.086 280.135 697.945 278.755 698.466 277.252C699.018 275.719 699.294 274.155 699.294 272.56V269.892ZM700.49 269.892H705.228V272.56C705.228 274.063 705.473 275.535 705.964 276.976C706.485 278.417 707.298 279.721 708.402 280.886C709.537 282.021 710.993 282.941 712.772 283.646L709.782 288.384C707.543 287.495 705.734 286.253 704.354 284.658C703.005 283.063 702.023 281.223 701.41 279.138C700.797 277.053 700.49 274.86 700.49 272.56V269.892ZM692.578 266.488H711.438V271.41H692.578V266.488ZM722.294 263.498H728.136V289.442H722.294V263.498ZM698.834 291.006H728.136V306.094H722.018V295.882H698.834V291.006ZM738.666 285.394H768.612V290.224H738.666V285.394ZM734.158 296.25H772.752V301.218H734.158V296.25ZM738.666 266.58H768.29V271.456H744.876V286.728H738.666V266.58ZM742.99 275.964H767.324V280.702H742.99V275.964Z" fill="#21BF48"/>
<path d="M166.993 351H162.056V335H167.212C168.764 335 170.092 335.32 171.196 335.961C172.3 336.596 173.147 337.51 173.735 338.703C174.324 339.891 174.618 341.312 174.618 342.969C174.618 344.635 174.321 346.07 173.728 347.273C173.134 348.471 172.269 349.393 171.134 350.039C169.998 350.68 168.618 351 166.993 351ZM163.993 349.281H166.868C168.191 349.281 169.287 349.026 170.157 348.516C171.027 348.005 171.675 347.279 172.103 346.336C172.53 345.393 172.743 344.271 172.743 342.969C172.743 341.677 172.532 340.565 172.11 339.633C171.688 338.695 171.058 337.977 170.22 337.477C169.381 336.971 168.337 336.719 167.087 336.719H163.993V349.281ZM182.649 351.25C181.493 351.25 180.496 350.995 179.657 350.484C178.824 349.969 178.181 349.25 177.728 348.328C177.28 347.401 177.056 346.323 177.056 345.094C177.056 343.865 177.28 342.781 177.728 341.844C178.181 340.901 178.811 340.167 179.618 339.641C180.431 339.109 181.379 338.844 182.462 338.844C183.087 338.844 183.704 338.948 184.313 339.156C184.923 339.365 185.478 339.703 185.978 340.172C186.478 340.635 186.876 341.25 187.173 342.016C187.47 342.781 187.618 343.724 187.618 344.844V345.625H178.368V344.031H185.743C185.743 343.354 185.608 342.75 185.337 342.219C185.071 341.687 184.691 341.268 184.196 340.961C183.707 340.654 183.129 340.5 182.462 340.5C181.728 340.5 181.092 340.682 180.556 341.047C180.024 341.406 179.616 341.875 179.329 342.453C179.043 343.031 178.899 343.651 178.899 344.312V345.375C178.899 346.281 179.056 347.049 179.368 347.68C179.686 348.305 180.126 348.781 180.688 349.109C181.251 349.432 181.905 349.594 182.649 349.594C183.134 349.594 183.571 349.526 183.962 349.391C184.358 349.25 184.699 349.042 184.985 348.766C185.272 348.484 185.493 348.135 185.649 347.719L187.431 348.219C187.243 348.823 186.928 349.354 186.485 349.812C186.043 350.266 185.496 350.62 184.845 350.875C184.194 351.125 183.462 351.25 182.649 351.25ZM199.87 339L195.433 351H193.558L189.12 339H191.12L194.433 348.562H194.558L197.87 339H199.87ZM210.804 341.687L209.147 342.156C209.043 341.88 208.89 341.612 208.687 341.352C208.489 341.086 208.218 340.867 207.874 340.695C207.53 340.523 207.09 340.437 206.554 340.437C205.819 340.437 205.207 340.607 204.718 340.945C204.233 341.279 203.991 341.703 203.991 342.219C203.991 342.677 204.158 343.039 204.491 343.305C204.825 343.57 205.345 343.792 206.054 343.969L207.835 344.406C208.908 344.667 209.707 345.065 210.233 345.602C210.759 346.133 211.022 346.818 211.022 347.656C211.022 348.344 210.825 348.958 210.429 349.5C210.038 350.042 209.491 350.469 208.788 350.781C208.085 351.094 207.267 351.25 206.335 351.25C205.111 351.25 204.098 350.984 203.296 350.453C202.494 349.922 201.986 349.146 201.772 348.125L203.522 347.687C203.689 348.333 204.004 348.818 204.468 349.141C204.937 349.464 205.549 349.625 206.304 349.625C207.163 349.625 207.845 349.443 208.351 349.078C208.861 348.708 209.116 348.266 209.116 347.75C209.116 347.333 208.97 346.984 208.679 346.703C208.387 346.417 207.939 346.203 207.335 346.062L205.335 345.594C204.236 345.333 203.429 344.93 202.913 344.383C202.403 343.831 202.147 343.141 202.147 342.312C202.147 341.635 202.338 341.036 202.718 340.516C203.103 339.995 203.627 339.586 204.288 339.289C204.955 338.992 205.71 338.844 206.554 338.844C207.741 338.844 208.674 339.104 209.351 339.625C210.033 340.146 210.517 340.833 210.804 341.687ZM221.985 355.5V349.156H221.829C221.694 349.375 221.501 349.651 221.251 349.984C221.001 350.312 220.644 350.607 220.181 350.867C219.717 351.122 219.1 351.25 218.329 351.25C217.329 351.25 216.446 350.997 215.681 350.492C214.915 349.982 214.316 349.263 213.884 348.336C213.451 347.404 213.235 346.302 213.235 345.031C213.235 343.771 213.451 342.677 213.884 341.75C214.316 340.823 214.918 340.107 215.688 339.602C216.459 339.096 217.35 338.844 218.36 338.844C219.142 338.844 219.759 338.974 220.212 339.234C220.67 339.49 221.019 339.781 221.259 340.109C221.504 340.432 221.694 340.698 221.829 340.906H222.048V339H223.829V355.5H221.985ZM218.579 349.594C219.319 349.594 219.944 349.401 220.454 349.016C220.965 348.625 221.353 348.086 221.618 347.398C221.884 346.706 222.017 345.906 222.017 345C222.017 344.104 221.886 343.32 221.626 342.648C221.366 341.971 220.98 341.445 220.47 341.07C219.959 340.69 219.329 340.5 218.579 340.5C217.798 340.5 217.147 340.701 216.626 341.102C216.11 341.497 215.722 342.036 215.462 342.719C215.207 343.396 215.079 344.156 215.079 345C215.079 345.854 215.209 346.63 215.47 347.328C215.735 348.021 216.126 348.573 216.642 348.984C217.162 349.391 217.808 349.594 218.579 349.594ZM234.767 346.094V339H236.61V351H234.767V348.969H234.642C234.36 349.578 233.923 350.096 233.329 350.523C232.735 350.945 231.985 351.156 231.079 351.156C230.329 351.156 229.662 350.992 229.079 350.664C228.496 350.331 228.037 349.831 227.704 349.164C227.371 348.492 227.204 347.646 227.204 346.625V339H229.048V346.5C229.048 347.375 229.293 348.073 229.782 348.594C230.277 349.115 230.907 349.375 231.673 349.375C232.131 349.375 232.597 349.258 233.071 349.023C233.55 348.789 233.951 348.43 234.274 347.945C234.603 347.461 234.767 346.844 234.767 346.094ZM243.519 351.281C242.758 351.281 242.068 351.138 241.448 350.852C240.828 350.56 240.336 350.141 239.972 349.594C239.607 349.042 239.425 348.375 239.425 347.594C239.425 346.906 239.56 346.349 239.831 345.922C240.102 345.49 240.464 345.151 240.917 344.906C241.37 344.661 241.87 344.479 242.417 344.359C242.969 344.234 243.524 344.135 244.081 344.063C244.81 343.969 245.401 343.898 245.854 343.852C246.313 343.799 246.646 343.714 246.854 343.594C247.068 343.474 247.175 343.266 247.175 342.969V342.906C247.175 342.135 246.964 341.536 246.542 341.109C246.125 340.682 245.493 340.469 244.644 340.469C243.763 340.469 243.073 340.661 242.573 341.047C242.073 341.432 241.722 341.844 241.519 342.281L239.769 341.656C240.081 340.927 240.498 340.359 241.019 339.953C241.545 339.542 242.118 339.255 242.737 339.094C243.362 338.927 243.977 338.844 244.581 338.844C244.966 338.844 245.409 338.891 245.909 338.984C246.414 339.073 246.901 339.258 247.37 339.539C247.844 339.82 248.237 340.245 248.55 340.812C248.862 341.38 249.019 342.141 249.019 343.094V351H247.175V349.375H247.081C246.956 349.635 246.748 349.914 246.456 350.211C246.164 350.508 245.776 350.76 245.292 350.969C244.808 351.177 244.216 351.281 243.519 351.281ZM243.8 349.625C244.529 349.625 245.144 349.482 245.644 349.195C246.149 348.909 246.529 348.539 246.784 348.086C247.045 347.633 247.175 347.156 247.175 346.656V344.969C247.097 345.062 246.925 345.148 246.659 345.227C246.399 345.299 246.097 345.365 245.753 345.422C245.414 345.474 245.084 345.521 244.761 345.562C244.443 345.599 244.185 345.63 243.987 345.656C243.508 345.719 243.06 345.82 242.644 345.961C242.232 346.096 241.899 346.302 241.644 346.578C241.394 346.849 241.269 347.219 241.269 347.687C241.269 348.328 241.506 348.812 241.979 349.141C242.459 349.464 243.065 349.625 243.8 349.625ZM256.915 351.25C255.915 351.25 255.032 350.997 254.267 350.492C253.501 349.982 252.902 349.263 252.47 348.336C252.037 347.404 251.821 346.302 251.821 345.031C251.821 343.771 252.037 342.677 252.47 341.75C252.902 340.823 253.504 340.107 254.274 339.602C255.045 339.096 255.936 338.844 256.946 338.844C257.728 338.844 258.345 338.974 258.798 339.234C259.256 339.49 259.605 339.781 259.845 340.109C260.09 340.432 260.28 340.698 260.415 340.906H260.571V335H262.415V351H260.634V349.156H260.415C260.28 349.375 260.087 349.651 259.837 349.984C259.587 350.312 259.23 350.607 258.767 350.867C258.303 351.122 257.686 351.25 256.915 351.25ZM257.165 349.594C257.905 349.594 258.53 349.401 259.04 349.016C259.55 348.625 259.938 348.086 260.204 347.398C260.47 346.706 260.603 345.906 260.603 345C260.603 344.104 260.472 343.32 260.212 342.648C259.951 341.971 259.566 341.445 259.056 341.07C258.545 340.69 257.915 340.5 257.165 340.5C256.384 340.5 255.733 340.701 255.212 341.102C254.696 341.497 254.308 342.036 254.048 342.719C253.793 343.396 253.665 344.156 253.665 345C253.665 345.854 253.795 346.63 254.056 347.328C254.321 348.021 254.712 348.573 255.228 348.984C255.748 349.391 256.394 349.594 257.165 349.594ZM266.604 342.002H268.21C269.648 342.002 270.894 341.995 271.95 341.98C273.021 341.951 274.011 341.892 274.92 341.804C275.83 341.716 276.746 341.599 277.67 341.452L277.868 342.904C276.9 343.065 275.954 343.19 275.03 343.278C274.106 343.351 273.102 343.403 272.016 343.432C270.931 343.461 269.662 343.476 268.21 343.476H266.604V342.002ZM266.604 334.016H276.064V335.512H268.43V342.75H266.604V334.016ZM267.836 337.954H275.514V339.406H267.836V337.954ZM279.936 332.828H281.762V344.686H279.936V332.828ZM268.914 345.676H281.762V352.452H268.914V345.676ZM279.98 347.128H270.696V350.956H279.98V347.128ZM293.773 340.55H297.513V342.046H293.773V340.55ZM300.857 332.806H302.617V352.716H300.857V332.806ZM296.897 333.224H298.635V351.704H296.897V333.224ZM290.165 334.478C291.03 334.478 291.778 334.757 292.409 335.314C293.054 335.871 293.553 336.671 293.905 337.712C294.257 338.753 294.433 339.978 294.433 341.386C294.433 342.809 294.257 344.041 293.905 345.082C293.553 346.123 293.054 346.93 292.409 347.502C291.778 348.059 291.03 348.338 290.165 348.338C289.329 348.338 288.588 348.059 287.943 347.502C287.312 346.93 286.821 346.123 286.469 345.082C286.117 344.041 285.941 342.809 285.941 341.386C285.941 339.978 286.117 338.753 286.469 337.712C286.821 336.671 287.312 335.871 287.943 335.314C288.588 334.757 289.329 334.478 290.165 334.478ZM290.165 336.172C289.651 336.172 289.204 336.385 288.823 336.81C288.441 337.235 288.148 337.837 287.943 338.614C287.737 339.391 287.635 340.315 287.635 341.386C287.635 342.457 287.737 343.388 287.943 344.18C288.148 344.957 288.441 345.559 288.823 345.984C289.204 346.409 289.651 346.622 290.165 346.622C290.693 346.622 291.147 346.409 291.529 345.984C291.925 345.559 292.225 344.957 292.431 344.18C292.636 343.388 292.739 342.457 292.739 341.386C292.739 340.315 292.636 339.391 292.431 338.614C292.225 337.837 291.925 337.235 291.529 336.81C291.147 336.385 290.693 336.172 290.165 336.172ZM315.881 339.56H321.403V341.056H315.881V339.56ZM311.063 334.522H312.559V338.086C312.559 339.186 312.42 340.271 312.141 341.342C311.877 342.413 311.496 343.41 310.997 344.334C310.498 345.258 309.912 346.079 309.237 346.798C308.577 347.517 307.851 348.089 307.059 348.514L305.915 347.04C306.648 346.688 307.323 346.197 307.939 345.566C308.57 344.935 309.12 344.217 309.589 343.41C310.058 342.589 310.418 341.731 310.667 340.836C310.931 339.927 311.063 339.01 311.063 338.086V334.522ZM311.437 334.522H312.911V338.086C312.911 338.981 313.036 339.868 313.285 340.748C313.549 341.628 313.916 342.457 314.385 343.234C314.854 343.997 315.397 344.679 316.013 345.28C316.644 345.881 317.318 346.351 318.037 346.688L316.937 348.162C316.145 347.751 315.412 347.201 314.737 346.512C314.062 345.823 313.476 345.031 312.977 344.136C312.493 343.241 312.112 342.281 311.833 341.254C311.569 340.227 311.437 339.171 311.437 338.086V334.522ZM320.501 332.806H322.305V352.738H320.501V332.806ZM333.2 351V335H335.138V342.125H343.669V335H345.606V351H343.669V343.844H335.138V351H333.2ZM348.61 336.719V335H360.61V336.719H355.579V351H353.642V336.719H348.61ZM363.601 335H365.913L371.351 348.281H371.538L376.976 335H379.288V351H377.476V338.844H377.319L372.319 351H370.569L365.569 338.844H365.413V351H363.601V335ZM383.173 351V335H385.11V349.281H392.548V351H383.173ZM398.048 348.812L397.923 349.656C397.834 350.25 397.699 350.885 397.517 351.563C397.34 352.24 397.155 352.878 396.962 353.477C396.769 354.076 396.61 354.552 396.485 354.906H395.079C395.147 354.573 395.235 354.133 395.345 353.586C395.454 353.039 395.563 352.427 395.673 351.75C395.787 351.078 395.881 350.391 395.954 349.687L396.048 348.812H398.048ZM420.776 340H418.839C418.724 339.443 418.524 338.953 418.237 338.531C417.956 338.109 417.612 337.755 417.206 337.469C416.805 337.177 416.36 336.958 415.87 336.812C415.381 336.667 414.87 336.594 414.339 336.594C413.37 336.594 412.493 336.839 411.706 337.328C410.925 337.818 410.302 338.539 409.839 339.492C409.381 340.445 409.151 341.615 409.151 343C409.151 344.385 409.381 345.555 409.839 346.508C410.302 347.461 410.925 348.182 411.706 348.672C412.493 349.161 413.37 349.406 414.339 349.406C414.87 349.406 415.381 349.333 415.87 349.187C416.36 349.042 416.805 348.826 417.206 348.539C417.612 348.247 417.956 347.891 418.237 347.469C418.524 347.042 418.724 346.552 418.839 346H420.776C420.631 346.818 420.365 347.549 419.979 348.195C419.594 348.841 419.115 349.391 418.542 349.844C417.969 350.292 417.326 350.633 416.612 350.867C415.904 351.102 415.146 351.219 414.339 351.219C412.974 351.219 411.761 350.885 410.698 350.219C409.636 349.552 408.8 348.604 408.19 347.375C407.581 346.146 407.276 344.687 407.276 343C407.276 341.312 407.581 339.854 408.19 338.625C408.8 337.396 409.636 336.448 410.698 335.781C411.761 335.115 412.974 334.781 414.339 334.781C415.146 334.781 415.904 334.898 416.612 335.133C417.326 335.367 417.969 335.711 418.542 336.164C419.115 336.612 419.594 337.159 419.979 337.805C420.365 338.445 420.631 339.177 420.776 340ZM432.657 339C432.563 338.208 432.183 337.594 431.517 337.156C430.85 336.719 430.032 336.5 429.063 336.5C428.355 336.5 427.735 336.615 427.204 336.844C426.678 337.073 426.267 337.388 425.97 337.789C425.678 338.19 425.532 338.646 425.532 339.156C425.532 339.583 425.634 339.951 425.837 340.258C426.045 340.56 426.311 340.812 426.634 341.016C426.957 341.214 427.295 341.378 427.649 341.508C428.004 341.633 428.329 341.734 428.626 341.812L430.251 342.25C430.668 342.359 431.131 342.51 431.642 342.703C432.157 342.896 432.649 343.159 433.118 343.492C433.592 343.82 433.983 344.242 434.29 344.758C434.597 345.273 434.751 345.906 434.751 346.656C434.751 347.521 434.524 348.302 434.071 349C433.623 349.698 432.967 350.253 432.103 350.664C431.243 351.076 430.199 351.281 428.97 351.281C427.824 351.281 426.832 351.096 425.993 350.727C425.16 350.357 424.504 349.841 424.024 349.18C423.55 348.518 423.282 347.75 423.22 346.875H425.22C425.272 347.479 425.475 347.979 425.829 348.375C426.188 348.766 426.642 349.057 427.188 349.25C427.741 349.437 428.334 349.531 428.97 349.531C429.709 349.531 430.373 349.411 430.962 349.172C431.55 348.927 432.017 348.589 432.36 348.156C432.704 347.719 432.876 347.208 432.876 346.625C432.876 346.094 432.728 345.661 432.431 345.328C432.134 344.995 431.743 344.724 431.259 344.516C430.774 344.307 430.251 344.125 429.688 343.969L427.72 343.406C426.47 343.047 425.48 342.534 424.751 341.867C424.022 341.201 423.657 340.328 423.657 339.25C423.657 338.354 423.899 337.573 424.384 336.906C424.873 336.234 425.53 335.714 426.353 335.344C427.181 334.969 428.105 334.781 429.126 334.781C430.157 334.781 431.074 334.966 431.876 335.336C432.678 335.701 433.313 336.201 433.782 336.836C434.256 337.471 434.506 338.193 434.532 339H432.657ZM446.687 339C446.593 338.208 446.213 337.594 445.546 337.156C444.879 336.719 444.062 336.5 443.093 336.5C442.384 336.5 441.765 336.615 441.233 336.844C440.707 337.073 440.296 337.388 439.999 337.789C439.707 338.19 439.562 338.646 439.562 339.156C439.562 339.583 439.663 339.951 439.866 340.258C440.075 340.56 440.34 340.812 440.663 341.016C440.986 341.214 441.325 341.378 441.679 341.508C442.033 341.633 442.358 341.734 442.655 341.812L444.28 342.25C444.697 342.359 445.16 342.51 445.671 342.703C446.187 342.896 446.679 343.159 447.147 343.492C447.621 343.82 448.012 344.242 448.319 344.758C448.627 345.273 448.78 345.906 448.78 346.656C448.78 347.521 448.554 348.302 448.101 349C447.653 349.698 446.996 350.253 446.132 350.664C445.272 351.076 444.228 351.281 442.999 351.281C441.853 351.281 440.861 351.096 440.022 350.727C439.189 350.357 438.533 349.841 438.054 349.18C437.58 348.518 437.312 347.75 437.249 346.875H439.249C439.301 347.479 439.504 347.979 439.858 348.375C440.218 348.766 440.671 349.057 441.218 349.25C441.77 349.437 442.364 349.531 442.999 349.531C443.739 349.531 444.403 349.411 444.991 349.172C445.58 348.927 446.046 348.589 446.39 348.156C446.733 347.719 446.905 347.208 446.905 346.625C446.905 346.094 446.757 345.661 446.46 345.328C446.163 344.995 445.772 344.724 445.288 344.516C444.804 344.307 444.28 344.125 443.718 343.969L441.749 343.406C440.499 343.047 439.509 342.534 438.78 341.867C438.051 341.201 437.687 340.328 437.687 339.25C437.687 338.354 437.929 337.573 438.413 336.906C438.903 336.234 439.559 335.714 440.382 335.344C441.21 334.969 442.134 334.781 443.155 334.781C444.187 334.781 445.103 334.966 445.905 335.336C446.707 335.701 447.343 336.201 447.812 336.836C448.285 337.471 448.535 338.193 448.562 339H446.687ZM454.466 348.812L454.341 349.656C454.252 350.25 454.117 350.885 453.935 351.563C453.757 352.24 453.573 352.878 453.38 353.477C453.187 354.076 453.028 354.552 452.903 354.906H451.497C451.565 354.573 451.653 354.133 451.763 353.586C451.872 353.039 451.981 352.427 452.091 351.75C452.205 351.078 452.299 350.391 452.372 349.687L452.466 348.812H454.466ZM470.444 335H472.382V346.437C472.382 347.458 472.194 348.326 471.819 349.039C471.444 349.753 470.916 350.294 470.233 350.664C469.551 351.034 468.746 351.219 467.819 351.219C466.944 351.219 466.166 351.06 465.483 350.742C464.801 350.419 464.265 349.961 463.874 349.367C463.483 348.773 463.288 348.068 463.288 347.25H465.194C465.194 347.703 465.306 348.099 465.53 348.437C465.759 348.771 466.072 349.031 466.468 349.219C466.864 349.406 467.314 349.5 467.819 349.5C468.377 349.5 468.851 349.383 469.241 349.148C469.632 348.914 469.929 348.57 470.132 348.117C470.34 347.659 470.444 347.099 470.444 346.437V335ZM479.546 351.281C478.785 351.281 478.095 351.138 477.476 350.852C476.856 350.56 476.364 350.141 475.999 349.594C475.634 349.042 475.452 348.375 475.452 347.594C475.452 346.906 475.588 346.349 475.858 345.922C476.129 345.49 476.491 345.151 476.944 344.906C477.397 344.661 477.897 344.479 478.444 344.359C478.996 344.234 479.551 344.135 480.108 344.063C480.838 343.969 481.429 343.898 481.882 343.852C482.34 343.799 482.674 343.714 482.882 343.594C483.095 343.474 483.202 343.266 483.202 342.969V342.906C483.202 342.135 482.991 341.536 482.569 341.109C482.153 340.682 481.52 340.469 480.671 340.469C479.791 340.469 479.101 340.661 478.601 341.047C478.101 341.432 477.749 341.844 477.546 342.281L475.796 341.656C476.108 340.927 476.525 340.359 477.046 339.953C477.572 339.542 478.145 339.255 478.765 339.094C479.39 338.927 480.004 338.844 480.608 338.844C480.994 338.844 481.437 338.891 481.937 338.984C482.442 339.073 482.929 339.258 483.397 339.539C483.871 339.82 484.265 340.245 484.577 340.812C484.89 341.38 485.046 342.141 485.046 343.094V351H483.202V349.375H483.108C482.983 349.635 482.775 349.914 482.483 350.211C482.192 350.508 481.804 350.76 481.319 350.969C480.835 351.177 480.244 351.281 479.546 351.281ZM479.827 349.625C480.556 349.625 481.171 349.482 481.671 349.195C482.176 348.909 482.556 348.539 482.812 348.086C483.072 347.633 483.202 347.156 483.202 346.656V344.969C483.124 345.062 482.952 345.148 482.687 345.227C482.426 345.299 482.124 345.365 481.78 345.422C481.442 345.474 481.111 345.521 480.788 345.562C480.47 345.599 480.213 345.63 480.015 345.656C479.535 345.719 479.088 345.82 478.671 345.961C478.259 346.096 477.926 346.302 477.671 346.578C477.421 346.849 477.296 347.219 477.296 347.687C477.296 348.328 477.533 348.812 478.007 349.141C478.486 349.464 479.093 349.625 479.827 349.625ZM497.794 339L493.356 351H491.481L487.044 339H489.044L492.356 348.562H492.481L495.794 339H497.794ZM503.394 351.281C502.633 351.281 501.943 351.138 501.323 350.852C500.703 350.56 500.211 350.141 499.847 349.594C499.482 349.042 499.3 348.375 499.3 347.594C499.3 346.906 499.435 346.349 499.706 345.922C499.977 345.49 500.339 345.151 500.792 344.906C501.245 344.661 501.745 344.479 502.292 344.359C502.844 344.234 503.399 344.135 503.956 344.063C504.685 343.969 505.276 343.898 505.729 343.852C506.188 343.799 506.521 343.714 506.729 343.594C506.943 343.474 507.05 343.266 507.05 342.969V342.906C507.05 342.135 506.839 341.536 506.417 341.109C506 340.682 505.368 340.469 504.519 340.469C503.638 340.469 502.948 340.661 502.448 341.047C501.948 341.432 501.597 341.844 501.394 342.281L499.644 341.656C499.956 340.927 500.373 340.359 500.894 339.953C501.42 339.542 501.993 339.255 502.612 339.094C503.237 338.927 503.852 338.844 504.456 338.844C504.841 338.844 505.284 338.891 505.784 338.984C506.289 339.073 506.776 339.258 507.245 339.539C507.719 339.82 508.112 340.245 508.425 340.812C508.737 341.38 508.894 342.141 508.894 343.094V351H507.05V349.375H506.956C506.831 349.635 506.623 349.914 506.331 350.211C506.039 350.508 505.651 350.76 505.167 350.969C504.683 351.177 504.091 351.281 503.394 351.281ZM503.675 349.625C504.404 349.625 505.019 349.482 505.519 349.195C506.024 348.909 506.404 348.539 506.659 348.086C506.92 347.633 507.05 347.156 507.05 346.656V344.969C506.972 345.062 506.8 345.148 506.534 345.227C506.274 345.299 505.972 345.365 505.628 345.422C505.289 345.474 504.959 345.521 504.636 345.562C504.318 345.599 504.06 345.63 503.862 345.656C503.383 345.719 502.935 345.82 502.519 345.961C502.107 346.096 501.774 346.302 501.519 346.578C501.269 346.849 501.144 347.219 501.144 347.687C501.144 348.328 501.381 348.812 501.854 349.141C502.334 349.464 502.94 349.625 503.675 349.625ZM521.259 339C521.165 338.208 520.785 337.594 520.118 337.156C519.451 336.719 518.634 336.5 517.665 336.5C516.957 336.5 516.337 336.615 515.806 336.844C515.28 337.073 514.868 337.388 514.571 337.789C514.28 338.19 514.134 338.646 514.134 339.156C514.134 339.583 514.235 339.951 514.438 340.258C514.647 340.56 514.912 340.812 515.235 341.016C515.558 341.214 515.897 341.378 516.251 341.508C516.605 341.633 516.931 341.734 517.228 341.812L518.853 342.25C519.269 342.359 519.733 342.51 520.243 342.703C520.759 342.896 521.251 343.159 521.72 343.492C522.194 343.82 522.584 344.242 522.892 344.758C523.199 345.273 523.353 345.906 523.353 346.656C523.353 347.521 523.126 348.302 522.673 349C522.225 349.698 521.569 350.253 520.704 350.664C519.845 351.076 518.8 351.281 517.571 351.281C516.425 351.281 515.433 351.096 514.595 350.727C513.761 350.357 513.105 349.841 512.626 349.18C512.152 348.518 511.884 347.75 511.821 346.875H513.821C513.873 347.479 514.076 347.979 514.431 348.375C514.79 348.766 515.243 349.057 515.79 349.25C516.342 349.437 516.936 349.531 517.571 349.531C518.311 349.531 518.975 349.411 519.563 349.172C520.152 348.927 520.618 348.589 520.962 348.156C521.306 347.719 521.478 347.208 521.478 346.625C521.478 346.094 521.329 345.661 521.032 345.328C520.735 344.995 520.345 344.724 519.86 344.516C519.376 344.307 518.853 344.125 518.29 343.969L516.321 343.406C515.071 343.047 514.082 342.534 513.353 341.867C512.623 341.201 512.259 340.328 512.259 339.25C512.259 338.354 512.501 337.573 512.985 336.906C513.475 336.234 514.131 335.714 514.954 335.344C515.782 334.969 516.707 334.781 517.728 334.781C518.759 334.781 519.675 334.966 520.478 335.336C521.28 335.701 521.915 336.201 522.384 336.836C522.858 337.471 523.108 338.193 523.134 339H521.259ZM531.163 351.25C530.038 351.25 529.069 350.984 528.257 350.453C527.444 349.922 526.819 349.19 526.382 348.258C525.944 347.326 525.726 346.26 525.726 345.062C525.726 343.844 525.95 342.768 526.397 341.836C526.851 340.898 527.481 340.167 528.288 339.641C529.101 339.109 530.049 338.844 531.132 338.844C531.976 338.844 532.736 339 533.413 339.312C534.09 339.625 534.645 340.062 535.077 340.625C535.509 341.187 535.778 341.844 535.882 342.594H534.038C533.897 342.047 533.585 341.562 533.101 341.141C532.621 340.714 531.976 340.5 531.163 340.5C530.444 340.5 529.814 340.687 529.272 341.062C528.736 341.432 528.317 341.956 528.015 342.633C527.718 343.305 527.569 344.094 527.569 345C527.569 345.927 527.715 346.734 528.007 347.422C528.304 348.109 528.72 348.643 529.257 349.023C529.799 349.404 530.434 349.594 531.163 349.594C531.642 349.594 532.077 349.51 532.468 349.344C532.858 349.177 533.189 348.938 533.46 348.625C533.731 348.312 533.924 347.937 534.038 347.5H535.882C535.778 348.208 535.52 348.846 535.108 349.414C534.702 349.977 534.163 350.424 533.491 350.758C532.825 351.086 532.049 351.25 531.163 351.25ZM538.577 351V339H540.358V340.812H540.483C540.702 340.219 541.098 339.737 541.671 339.367C542.244 338.997 542.89 338.812 543.608 338.812C543.744 338.812 543.913 338.815 544.116 338.82C544.319 338.826 544.473 338.833 544.577 338.844V340.719C544.515 340.703 544.371 340.68 544.147 340.648C543.929 340.612 543.697 340.594 543.452 340.594C542.869 340.594 542.348 340.716 541.89 340.961C541.437 341.201 541.077 341.534 540.812 341.961C540.551 342.383 540.421 342.865 540.421 343.406V351H538.577ZM546.763 351V339H548.606V351H546.763ZM547.7 337C547.341 337 547.031 336.878 546.771 336.633C546.515 336.388 546.388 336.094 546.388 335.75C546.388 335.406 546.515 335.112 546.771 334.867C547.031 334.622 547.341 334.5 547.7 334.5C548.06 334.5 548.367 334.622 548.622 334.867C548.882 335.112 549.013 335.406 549.013 335.75C549.013 336.094 548.882 336.388 548.622 336.633C548.367 336.878 548.06 337 547.7 337ZM551.983 355.5V339H553.765V340.906H553.983C554.119 340.698 554.306 340.432 554.546 340.109C554.791 339.781 555.14 339.49 555.593 339.234C556.051 338.974 556.671 338.844 557.452 338.844C558.463 338.844 559.353 339.096 560.124 339.602C560.895 340.107 561.496 340.823 561.929 341.75C562.361 342.677 562.577 343.771 562.577 345.031C562.577 346.302 562.361 347.404 561.929 348.336C561.496 349.263 560.897 349.982 560.132 350.492C559.366 350.997 558.483 351.25 557.483 351.25C556.713 351.25 556.095 351.122 555.632 350.867C555.168 350.607 554.812 350.312 554.562 349.984C554.312 349.651 554.119 349.375 553.983 349.156H553.827V355.5H551.983ZM553.796 345C553.796 345.906 553.929 346.706 554.194 347.398C554.46 348.086 554.848 348.625 555.358 349.016C555.869 349.401 556.494 349.594 557.233 349.594C558.004 349.594 558.647 349.391 559.163 348.984C559.684 348.573 560.075 348.021 560.335 347.328C560.601 346.63 560.733 345.854 560.733 345C560.733 344.156 560.603 343.396 560.343 342.719C560.088 342.036 559.7 341.497 559.179 341.102C558.663 340.701 558.015 340.5 557.233 340.5C556.483 340.5 555.853 340.69 555.343 341.07C554.832 341.445 554.447 341.971 554.187 342.648C553.926 343.32 553.796 344.104 553.796 345ZM570.608 339V340.562H564.39V339H570.608ZM566.202 336.125H568.046V347.562C568.046 348.083 568.121 348.474 568.272 348.734C568.429 348.99 568.627 349.161 568.866 349.25C569.111 349.333 569.369 349.375 569.64 349.375C569.843 349.375 570.009 349.365 570.14 349.344C570.27 349.318 570.374 349.297 570.452 349.281L570.827 350.937C570.702 350.984 570.528 351.031 570.304 351.078C570.08 351.13 569.796 351.156 569.452 351.156C568.931 351.156 568.421 351.044 567.921 350.82C567.426 350.596 567.015 350.255 566.687 349.797C566.364 349.339 566.202 348.76 566.202 348.062V336.125ZM572.772 342.046H590.812V343.454H572.772V342.046ZM574.928 345.038H588.568V349.284H576.776V351.616H574.972V348.03H586.764V346.358H574.928V345.038ZM574.972 351.132H589.206V352.452H574.972V351.132ZM575.06 333.4H588.502V337.536H576.908V339.692H575.104V336.304H586.698V334.698H575.06V333.4ZM575.104 339.252H588.854V340.572H575.104V339.252ZM604.082 334.522H605.578V338.086C605.578 339.186 605.439 340.264 605.16 341.32C604.896 342.376 604.515 343.366 604.016 344.29C603.517 345.214 602.931 346.035 602.256 346.754C601.581 347.473 600.848 348.045 600.056 348.47L598.934 346.996C599.667 346.629 600.342 346.138 600.958 345.522C601.589 344.891 602.139 344.173 602.608 343.366C603.077 342.559 603.437 341.709 603.686 340.814C603.95 339.905 604.082 338.995 604.082 338.086V334.522ZM604.412 334.522H605.886V338.086C605.886 338.966 606.011 339.839 606.26 340.704C606.524 341.569 606.891 342.383 607.36 343.146C607.829 343.909 608.365 344.591 608.966 345.192C609.582 345.793 610.242 346.27 610.946 346.622L609.824 348.074C609.047 347.678 608.328 347.135 607.668 346.446C607.023 345.757 606.451 344.972 605.952 344.092C605.468 343.197 605.087 342.244 604.808 341.232C604.544 340.205 604.412 339.157 604.412 338.086V334.522ZM612.684 332.806H614.51V352.716H612.684V332.806ZM614.092 340.858H617.766V342.42H614.092V340.858ZM623.88 339.56H625.706V343.3H623.88V339.56ZM631.184 339.56H632.988V343.3H631.184V339.56ZM619.458 342.64H637.432V344.114H619.458V342.64ZM628.434 345.632C630.561 345.632 632.226 345.933 633.428 346.534C634.631 347.135 635.232 348.001 635.232 349.13C635.232 350.274 634.631 351.147 633.428 351.748C632.226 352.364 630.561 352.672 628.434 352.672C626.308 352.672 624.636 352.364 623.418 351.748C622.216 351.147 621.614 350.274 621.614 349.13C621.614 348.001 622.216 347.135 623.418 346.534C624.636 345.933 626.308 345.632 628.434 345.632ZM628.434 347.04C627.393 347.04 626.498 347.121 625.75 347.282C625.017 347.443 624.452 347.685 624.056 348.008C623.66 348.316 623.462 348.69 623.462 349.13C623.462 349.599 623.66 349.995 624.056 350.318C624.452 350.626 625.017 350.861 625.75 351.022C626.498 351.183 627.393 351.264 628.434 351.264C629.476 351.264 630.363 351.183 631.096 351.022C631.844 350.861 632.416 350.626 632.812 350.318C633.208 349.995 633.406 349.599 633.406 349.13C633.406 348.69 633.208 348.316 632.812 348.008C632.416 347.685 631.844 347.443 631.096 347.282C630.363 347.121 629.476 347.04 628.434 347.04ZM628.434 333.18C629.872 333.18 631.111 333.327 632.152 333.62C633.208 333.913 634.015 334.339 634.572 334.896C635.144 335.439 635.43 336.099 635.43 336.876C635.43 337.639 635.144 338.299 634.572 338.856C634.015 339.413 633.208 339.839 632.152 340.132C631.111 340.411 629.872 340.55 628.434 340.55C626.997 340.55 625.75 340.411 624.694 340.132C623.653 339.839 622.846 339.413 622.274 338.856C621.717 338.299 621.438 337.639 621.438 336.876C621.438 336.099 621.717 335.439 622.274 334.896C622.846 334.339 623.653 333.913 624.694 333.62C625.75 333.327 626.997 333.18 628.434 333.18ZM628.434 334.61C627.393 334.61 626.484 334.698 625.706 334.874C624.944 335.05 624.35 335.307 623.924 335.644C623.514 335.981 623.308 336.392 623.308 336.876C623.308 337.345 623.514 337.756 623.924 338.108C624.35 338.445 624.944 338.702 625.706 338.878C626.484 339.054 627.393 339.142 628.434 339.142C629.505 339.142 630.422 339.054 631.184 338.878C631.947 338.702 632.534 338.445 632.944 338.108C633.355 337.756 633.56 337.345 633.56 336.876C633.56 336.392 633.355 335.981 632.944 335.644C632.534 335.307 631.947 335.05 631.184 334.874C630.422 334.698 629.505 334.61 628.434 334.61ZM653.183 332.806H654.987V352.716H653.183V332.806ZM654.569 340.99H658.243V342.53H654.569V340.99ZM639.587 335.996H651.313V337.492H639.587V335.996ZM645.549 339.12C646.487 339.12 647.316 339.318 648.035 339.714C648.768 340.11 649.34 340.653 649.751 341.342C650.176 342.017 650.389 342.801 650.389 343.696C650.389 344.591 650.176 345.383 649.751 346.072C649.34 346.761 648.768 347.304 648.035 347.7C647.316 348.081 646.487 348.272 645.549 348.272C644.61 348.272 643.774 348.081 643.041 347.7C642.322 347.304 641.75 346.761 641.325 346.072C640.899 345.383 640.687 344.591 640.687 343.696C640.687 342.801 640.899 342.017 641.325 341.342C641.75 340.653 642.322 340.11 643.041 339.714C643.774 339.318 644.61 339.12 645.549 339.12ZM645.549 340.638C644.947 340.638 644.412 340.77 643.943 341.034C643.473 341.298 643.099 341.657 642.821 342.112C642.557 342.567 642.425 343.095 642.425 343.696C642.425 344.297 642.557 344.833 642.821 345.302C643.099 345.757 643.473 346.116 643.943 346.38C644.412 346.629 644.947 346.754 645.549 346.754C646.135 346.754 646.663 346.629 647.133 346.38C647.602 346.116 647.969 345.757 648.233 345.302C648.511 344.833 648.651 344.297 648.651 343.696C648.651 343.095 648.511 342.567 648.233 342.112C647.969 341.657 647.602 341.298 647.133 341.034C646.663 340.77 646.135 340.638 645.549 340.638ZM644.603 333.048H646.429V336.656H644.603V333.048ZM668.889 337.25H674.917V338.746H668.889V337.25ZM668.889 343.542H674.917V345.038H668.889V343.542ZM665.237 334.346C666.205 334.346 667.063 334.632 667.811 335.204C668.559 335.761 669.138 336.561 669.549 337.602C669.974 338.643 670.187 339.868 670.187 341.276C670.187 342.684 669.974 343.909 669.549 344.95C669.138 345.991 668.559 346.798 667.811 347.37C667.063 347.942 666.205 348.228 665.237 348.228C664.284 348.228 663.426 347.942 662.663 347.37C661.915 346.798 661.328 345.991 660.903 344.95C660.492 343.909 660.287 342.684 660.287 341.276C660.287 339.868 660.492 338.643 660.903 337.602C661.328 336.561 661.915 335.761 662.663 335.204C663.426 334.632 664.284 334.346 665.237 334.346ZM665.237 335.974C664.606 335.974 664.049 336.194 663.565 336.634C663.081 337.059 662.7 337.675 662.421 338.482C662.157 339.274 662.025 340.205 662.025 341.276C662.025 342.347 662.157 343.285 662.421 344.092C662.7 344.884 663.081 345.5 663.565 345.94C664.049 346.38 664.606 346.6 665.237 346.6C665.882 346.6 666.447 346.38 666.931 345.94C667.415 345.5 667.789 344.884 668.053 344.092C668.332 343.285 668.471 342.347 668.471 341.276C668.471 340.205 668.332 339.274 668.053 338.482C667.789 337.675 667.415 337.059 666.931 336.634C666.447 336.194 665.882 335.974 665.237 335.974ZM674.499 332.806H676.303V352.738H674.499V332.806ZM701.453 332.806H703.213V352.716H701.453V332.806ZM698.241 340.814H702.069V342.31H698.241V340.814ZM693.115 335.38H694.853C694.853 336.656 694.728 337.903 694.479 339.12C694.229 340.337 693.819 341.511 693.247 342.64C692.689 343.755 691.934 344.803 690.981 345.786C690.027 346.754 688.839 347.641 687.417 348.448L686.361 347.15C688.033 346.211 689.36 345.148 690.343 343.96C691.325 342.772 692.029 341.489 692.455 340.11C692.895 338.717 693.115 337.25 693.115 335.71V335.38ZM687.131 335.38H693.709V336.876H687.131V335.38ZM697.053 333.334H698.769V351.726H697.053V333.334ZM707.413 333.642H709.217V336.48H714.827V333.642H716.631V342.31H707.413V333.642ZM709.217 337.91V340.836H714.827V337.91H709.217ZM720.217 332.806H722.043V343.08H720.217V332.806ZM721.229 337.096H724.969V338.592H721.229V337.096ZM709.393 344.026H722.043V348.866H711.241V351.836H709.459V347.502H720.239V345.478H709.393V344.026ZM709.459 351.022H722.747V352.496H709.459V351.022ZM740.455 332.828H742.281V347.744H740.455V332.828ZM741.709 339.362H745.207V340.88H741.709V339.362ZM726.881 335.248H738.629V336.722H726.881V335.248ZM732.755 337.8C733.694 337.8 734.523 337.961 735.241 338.284C735.96 338.592 736.517 339.025 736.913 339.582C737.309 340.125 737.507 340.77 737.507 341.518C737.507 342.266 737.309 342.919 736.913 343.476C736.517 344.019 735.96 344.444 735.241 344.752C734.523 345.06 733.694 345.214 732.755 345.214C731.817 345.214 730.988 345.06 730.269 344.752C729.551 344.444 728.986 344.019 728.575 343.476C728.179 342.919 727.981 342.266 727.981 341.518C727.981 340.77 728.179 340.125 728.575 339.582C728.986 339.025 729.551 338.592 730.269 338.284C730.988 337.961 731.817 337.8 732.755 337.8ZM732.755 339.23C731.861 339.23 731.135 339.443 730.577 339.868C730.02 340.279 729.741 340.829 729.741 341.518C729.741 342.207 730.02 342.757 730.577 343.168C731.135 343.579 731.861 343.784 732.755 343.784C733.665 343.784 734.391 343.579 734.933 343.168C735.491 342.757 735.769 342.207 735.769 341.518C735.769 340.829 735.491 340.279 734.933 339.868C734.391 339.443 733.665 339.23 732.755 339.23ZM731.853 332.828H733.679V335.996H731.853V332.828ZM729.895 350.78H743.161V352.276H729.895V350.78ZM729.895 346.556H731.699V351.396H729.895V346.556ZM768.245 332.806H770.005V345.126H768.245V332.806ZM764.681 333.158H766.419V345.082H764.681V333.158ZM761.205 342.662H765.517V343.96H761.205V342.662ZM757.663 341.232H759.423V345.06H757.663V341.232ZM753.351 341.958L753.153 340.528C753.828 340.528 754.598 340.528 755.463 340.528C756.328 340.513 757.23 340.491 758.169 340.462C759.108 340.418 760.039 340.359 760.963 340.286C761.902 340.198 762.782 340.088 763.603 339.956L763.735 341.21C762.606 341.445 761.41 341.621 760.149 341.738C758.888 341.841 757.663 341.907 756.475 341.936C755.302 341.951 754.26 341.958 753.351 341.958ZM756.629 345.852H758.433V347.7H768.201V345.852H770.005V352.452H756.629V345.852ZM758.433 349.13V351H768.201V349.13H758.433ZM758.499 333.51C759.79 333.51 760.831 333.774 761.623 334.302C762.415 334.83 762.811 335.549 762.811 336.458C762.811 337.367 762.415 338.086 761.623 338.614C760.831 339.142 759.79 339.406 758.499 339.406C757.208 339.406 756.16 339.142 755.353 338.614C754.561 338.086 754.165 337.367 754.165 336.458C754.165 335.549 754.561 334.83 755.353 334.302C756.16 333.774 757.208 333.51 758.499 333.51ZM758.499 334.808C757.692 334.808 757.047 334.955 756.563 335.248C756.079 335.541 755.837 335.945 755.837 336.458C755.837 336.957 756.079 337.353 756.563 337.646C757.047 337.939 757.692 338.086 758.499 338.086C759.306 338.086 759.951 337.939 760.435 337.646C760.919 337.353 761.161 336.957 761.161 336.458C761.161 335.945 760.919 335.541 760.435 335.248C759.951 334.955 759.306 334.808 758.499 334.808ZM794.187 332.806H796.013V352.716H794.187V332.806ZM788.357 334.962H790.161C790.161 336.399 789.985 337.785 789.633 339.12C789.296 340.455 788.76 341.723 788.027 342.926C787.294 344.114 786.34 345.221 785.167 346.248C783.994 347.275 782.571 348.191 780.899 348.998L779.931 347.524C781.852 346.6 783.436 345.522 784.683 344.29C785.93 343.058 786.854 341.687 787.455 340.176C788.056 338.651 788.357 337.008 788.357 335.248V334.962ZM780.855 334.962H789.127V336.436H780.855V334.962ZM813.545 332.828H815.371V347.436H813.545V332.828ZM814.799 338.834H818.297V340.352H814.799V338.834ZM802.985 350.78H816.251V352.276H802.985V350.78ZM802.985 346.028H804.789V351.11H802.985V346.028ZM800.741 334.258H802.545V337.58H808.155V334.258H809.959V344.092H800.741V334.258ZM802.545 339.01V342.618H808.155V339.01H802.545ZM834.427 344.048H836.231V348.998H834.427V344.048ZM835.329 334.104C836.737 334.104 837.984 334.324 839.069 334.764C840.154 335.189 841.005 335.791 841.621 336.568C842.252 337.345 842.567 338.262 842.567 339.318C842.567 340.374 842.252 341.298 841.621 342.09C841.005 342.867 840.154 343.469 839.069 343.894C837.984 344.319 836.737 344.532 835.329 344.532C833.936 344.532 832.689 344.319 831.589 343.894C830.504 343.469 829.653 342.867 829.037 342.09C828.421 341.298 828.113 340.374 828.113 339.318C828.113 338.262 828.421 337.345 829.037 336.568C829.653 335.791 830.504 335.189 831.589 334.764C832.689 334.324 833.936 334.104 835.329 334.104ZM835.329 335.578C834.273 335.578 833.334 335.732 832.513 336.04C831.692 336.348 831.046 336.788 830.577 337.36C830.108 337.917 829.873 338.57 829.873 339.318C829.873 340.066 830.108 340.726 830.577 341.298C831.046 341.87 831.692 342.31 832.513 342.618C833.334 342.926 834.273 343.08 835.329 343.08C836.385 343.08 837.324 342.926 838.145 342.618C838.966 342.31 839.612 341.87 840.081 341.298C840.565 340.726 840.807 340.066 840.807 339.318C840.807 338.57 840.565 337.917 840.081 337.36C839.612 336.788 838.966 336.348 838.145 336.04C837.324 335.732 836.385 335.578 835.329 335.578ZM826.353 348.646H844.393V350.164H826.353V348.646ZM848.263 333.818H862.849V335.314H848.263V333.818ZM848.329 339.802H862.783V341.276H848.329V339.802ZM851.255 334.5H853.081V340.462H851.255V334.5ZM858.031 334.5H859.857V340.462H858.031V334.5ZM846.591 343.432H864.565V344.906H846.591V343.432ZM848.901 350.78H862.563V352.276H848.901V350.78ZM848.901 346.732H850.727V351.198H848.901V346.732ZM867.621 334.808H876.751V347.656H867.621V334.808ZM874.947 336.26H869.403V346.182H874.947V336.26ZM880.293 332.806H882.119V352.716H880.293V332.806ZM881.701 340.748H885.375V342.288H881.701V340.748ZM894.306 338.636H898.684V340.132H894.306V338.636ZM902.16 332.828H903.898V346.314H902.16V332.828ZM898.244 333.18H899.982V344.532H898.244V333.18ZM896.352 345.148H897.914V345.786C897.914 346.681 897.701 347.509 897.276 348.272C896.865 349.02 896.3 349.695 895.582 350.296C894.878 350.883 894.064 351.374 893.14 351.77C892.23 352.166 891.277 352.452 890.28 352.628L889.554 351.198C890.258 351.081 890.94 350.905 891.6 350.67C892.274 350.435 892.898 350.149 893.47 349.812C894.042 349.475 894.54 349.101 894.966 348.69C895.406 348.265 895.743 347.81 895.978 347.326C896.227 346.827 896.352 346.314 896.352 345.786V345.148ZM896.594 345.148H898.156V345.786C898.156 346.314 898.28 346.827 898.53 347.326C898.779 347.81 899.116 348.265 899.542 348.69C899.967 349.101 900.466 349.475 901.038 349.812C901.61 350.149 902.226 350.435 902.886 350.67C903.56 350.905 904.242 351.081 904.932 351.198L904.228 352.628C903.23 352.452 902.27 352.166 901.346 351.77C900.436 351.374 899.622 350.883 898.904 350.296C898.2 349.695 897.635 349.02 897.21 348.272C896.799 347.509 896.594 346.681 896.594 345.786V345.148ZM894.108 334.478H895.868C895.868 336.106 895.611 337.624 895.098 339.032C894.599 340.425 893.778 341.687 892.634 342.816C891.504 343.945 890.001 344.913 888.124 345.72L887.244 344.378C888.901 343.674 890.228 342.853 891.226 341.914C892.238 340.961 892.971 339.905 893.426 338.746C893.88 337.573 894.108 336.319 894.108 334.984V334.478ZM888.146 334.478H894.724V335.974H888.146V334.478ZM893.932 338.24V339.516L887.508 340.198L887.222 338.658L893.932 338.24ZM915.166 333.422H929.752V334.83H915.166V333.422ZM915.232 338.614H929.686V340.022H915.232V338.614ZM918.158 333.95H919.984V339.56H918.158V333.95ZM924.934 333.95H926.76V339.56H924.934V333.95ZM913.494 341.672H931.468V343.146H913.494V341.672ZM915.672 344.884H929.158V349.262H917.498V351.66H915.716V347.942H927.376V346.248H915.672V344.884ZM915.716 351.088H929.752V352.496H915.716V351.088ZM948.758 332.828H950.496V346.358H948.758V332.828ZM945.568 338.02H949.308V339.516H945.568V338.02ZM944.358 333.202H946.074V344.642H944.358V333.202ZM934.634 342.882H935.932C936.871 342.882 937.736 342.867 938.528 342.838C939.335 342.809 940.119 342.75 940.882 342.662C941.645 342.574 942.422 342.442 943.214 342.266L943.412 343.74C942.576 343.901 941.769 344.026 940.992 344.114C940.215 344.202 939.415 344.261 938.594 344.29C937.773 344.319 936.885 344.334 935.932 344.334H934.634V342.882ZM934.59 334.368H942.07V339.956H936.394V343.85H934.634V338.57H940.31V335.864H934.59V334.368ZM942.972 345.456H944.534V345.962C944.534 346.842 944.329 347.656 943.918 348.404C943.507 349.137 942.943 349.79 942.224 350.362C941.52 350.934 940.713 351.411 939.804 351.792C938.909 352.188 937.963 352.467 936.966 352.628L936.24 351.198C936.929 351.095 937.604 350.934 938.264 350.714C938.939 350.479 939.555 350.201 940.112 349.878C940.684 349.555 941.183 349.189 941.608 348.778C942.033 348.367 942.363 347.927 942.598 347.458C942.847 346.989 942.972 346.49 942.972 345.962V345.456ZM943.236 345.456H944.798V345.962C944.798 346.49 944.915 346.989 945.15 347.458C945.399 347.927 945.737 348.367 946.162 348.778C946.587 349.189 947.079 349.555 947.636 349.878C948.208 350.201 948.824 350.479 949.484 350.714C950.159 350.934 950.841 351.095 951.53 351.198L950.804 352.628C949.807 352.467 948.853 352.188 947.944 351.792C947.049 351.411 946.243 350.934 945.524 350.362C944.82 349.79 944.263 349.137 943.852 348.404C943.441 347.656 943.236 346.842 943.236 345.962V345.456ZM953.97 342.838H971.944V344.312H953.97V342.838ZM962.022 340.176H963.848V343.608H962.022V340.176ZM955.642 333.444H970.228V334.94H955.642V333.444ZM955.708 339.076H970.162V340.572H955.708V339.076ZM958.634 334.104H960.46V340.066H958.634V334.104ZM965.41 334.104H967.236V340.066H965.41V334.104ZM956.17 346.182H969.744V352.452H956.17V346.182ZM967.962 347.634H957.952V350.956H967.962V347.634ZM988.684 332.806H990.51V343.498H988.684V332.806ZM977.706 344.488H979.488V346.886H988.706V344.488H990.51V352.452H977.706V344.488ZM979.488 348.338V350.956H988.706V348.338H979.488ZM979.84 333.752C980.852 333.752 981.747 333.95 982.524 334.346C983.302 334.727 983.91 335.263 984.35 335.952C984.805 336.641 985.032 337.441 985.032 338.35C985.032 339.245 984.805 340.044 984.35 340.748C983.91 341.437 983.302 341.973 982.524 342.354C981.747 342.735 980.852 342.926 979.84 342.926C978.843 342.926 977.948 342.735 977.156 342.354C976.379 341.973 975.763 341.437 975.308 340.748C974.868 340.044 974.648 339.245 974.648 338.35C974.648 337.441 974.868 336.641 975.308 335.952C975.763 335.263 976.379 334.727 977.156 334.346C977.948 333.95 978.843 333.752 979.84 333.752ZM979.84 335.292C979.18 335.292 978.594 335.424 978.08 335.688C977.567 335.937 977.164 336.297 976.87 336.766C976.577 337.221 976.43 337.749 976.43 338.35C976.43 338.937 976.577 339.465 976.87 339.934C977.164 340.389 977.567 340.748 978.08 341.012C978.594 341.276 979.18 341.408 979.84 341.408C980.5 341.408 981.087 341.276 981.6 341.012C982.114 340.748 982.517 340.389 982.81 339.934C983.104 339.465 983.25 338.937 983.25 338.35C983.25 337.749 983.104 337.221 982.81 336.766C982.517 336.297 982.114 335.937 981.6 335.688C981.087 335.424 980.5 335.292 979.84 335.292ZM1008.92 332.806H1010.73V352.716H1008.92V332.806ZM995.701 334.764H997.505V347.084H995.701V334.764ZM995.701 346.006H997.329C998.854 346.006 1000.4 345.94 1001.97 345.808C1003.55 345.661 1005.18 345.419 1006.85 345.082L1007.1 346.622C1005.37 346.989 1003.7 347.245 1002.1 347.392C1000.5 347.524 998.913 347.59 997.329 347.59H995.701V346.006ZM1028.15 332.806H1029.97V352.738H1028.15V332.806ZM1029.56 340.66H1033.23V342.178H1029.56V340.66ZM1015.54 346.226H1017.1C1018.32 346.226 1019.44 346.211 1020.45 346.182C1021.48 346.138 1022.46 346.065 1023.4 345.962C1024.35 345.859 1025.32 345.72 1026.3 345.544L1026.52 347.106C1025.49 347.282 1024.5 347.421 1023.53 347.524C1022.58 347.627 1021.58 347.693 1020.54 347.722C1019.5 347.751 1018.35 347.766 1017.1 347.766H1015.54V346.226ZM1015.54 334.742H1024.76V336.238H1017.35V346.93H1015.54V334.742ZM1036.85 351.125C1036.47 351.125 1036.14 350.987 1035.86 350.711C1035.59 350.435 1035.45 350.104 1035.45 349.719C1035.45 349.333 1035.59 349.003 1035.86 348.727C1036.14 348.451 1036.47 348.312 1036.85 348.312C1037.24 348.312 1037.57 348.451 1037.85 348.727C1038.12 349.003 1038.26 349.333 1038.26 349.719C1038.26 349.974 1038.2 350.208 1038.07 350.422C1037.94 350.635 1037.77 350.807 1037.56 350.937C1037.35 351.063 1037.11 351.125 1036.85 351.125Z" fill="#767676"/>
<line x1="-0.000833332" y1="397.5" x2="1200" y2="395.5" stroke="#D3D7DA"/>
<g clip-path="url(#clip1_5_2)">
<g clip-path="url(#clip2_5_2)">
<rect width="78" height="38" transform="translate(253 436)" fill="#555555"/>
<path d="M277.229 452.232H274.049V460.08H271.865V452.232H268.685V450.3H277.229V452.232ZM280.801 450.3H288.073V452.196H282.985V454.188H287.653V456.084H282.985V458.184H288.181V460.08H280.801V450.3ZM298.036 458.184H294.244L293.56 460.08H291.304L295.096 450.3H297.364L301.156 460.08H298.72L298.036 458.184ZM297.364 456.288L296.14 452.88L294.916 456.288H297.364ZM304.538 450.3H306.278L309.65 455.772L313.022 450.3H314.762V460.08H312.578V454.716L310.31 458.472H308.99L306.722 454.716V460.08H304.538V450.3Z" fill="white"/>
<rect width="117" height="38" transform="translate(331 436)" fill="#21BF48"/>
<path d="M346.984 450.3H350.776C351.84 450.3 352.768 450.508 353.56 450.924C354.352 451.332 354.96 451.908 355.384 452.652C355.808 453.388 356.02 454.236 356.02 455.196C356.02 456.156 355.808 457.008 355.384 457.752C354.96 458.488 354.352 459.06 353.56 459.468C352.768 459.876 351.84 460.08 350.776 460.08H346.984V450.3ZM350.812 458.148C351.756 458.148 352.496 457.892 353.032 457.38C353.568 456.86 353.836 456.132 353.836 455.196C353.836 454.26 353.568 453.532 353.032 453.012C352.496 452.492 351.756 452.232 350.812 452.232H349.168V458.148H350.812ZM362.971 460.248C362.267 460.248 361.635 460.088 361.075 459.768C360.523 459.456 360.091 459.02 359.779 458.46C359.467 457.9 359.311 457.268 359.311 456.564C359.311 455.86 359.467 455.228 359.779 454.668C360.091 454.108 360.523 453.672 361.075 453.36C361.635 453.04 362.267 452.88 362.971 452.88C363.675 452.88 364.303 453.04 364.855 453.36C365.415 453.672 365.851 454.108 366.163 454.668C366.475 455.228 366.631 455.86 366.631 456.564C366.631 456.796 366.615 457.024 366.583 457.248H361.435C361.515 457.656 361.691 457.972 361.963 458.196C362.235 458.42 362.571 458.532 362.971 458.532C363.275 458.532 363.543 458.484 363.775 458.388C364.015 458.284 364.179 458.148 364.267 457.98H366.415C366.295 458.428 366.071 458.82 365.743 459.156C365.415 459.5 365.011 459.768 364.531 459.96C364.051 460.152 363.531 460.248 362.971 460.248ZM364.543 455.868C364.455 455.444 364.275 455.124 364.003 454.908C363.731 454.684 363.387 454.572 362.971 454.572C362.555 454.572 362.215 454.684 361.951 454.908C361.687 455.124 361.511 455.444 361.423 455.868H364.543ZM376.882 453.048L374.182 460.08H371.962L369.262 453.048H371.578L373.15 457.632L374.722 453.048H376.882ZM384.073 450.06C384.793 450.06 385.445 450.196 386.029 450.468C386.613 450.74 387.077 451.12 387.421 451.608C387.773 452.088 387.965 452.636 387.997 453.252H385.741C385.677 452.82 385.489 452.484 385.177 452.244C384.865 452.004 384.449 451.884 383.929 451.884C383.433 451.884 383.045 451.976 382.765 452.16C382.485 452.336 382.345 452.576 382.345 452.88C382.345 453.12 382.433 453.316 382.609 453.468C382.785 453.62 383.053 453.756 383.413 453.876C383.781 453.988 384.313 454.116 385.009 454.26C386.089 454.484 386.861 454.856 387.325 455.376C387.797 455.888 388.033 456.532 388.033 457.308C388.033 457.916 387.857 458.448 387.505 458.904C387.161 459.36 386.689 459.708 386.089 459.948C385.489 460.196 384.821 460.32 384.085 460.32C383.285 460.32 382.565 460.18 381.925 459.9C381.293 459.628 380.789 459.236 380.413 458.724C380.045 458.212 379.845 457.612 379.813 456.924H382.057C382.121 457.396 382.345 457.776 382.729 458.064C383.121 458.344 383.625 458.484 384.241 458.484C384.689 458.484 385.057 458.384 385.345 458.184C385.641 457.984 385.789 457.724 385.789 457.404C385.789 457.148 385.709 456.936 385.549 456.768C385.397 456.6 385.149 456.456 384.805 456.336C384.469 456.216 383.997 456.1 383.389 455.988C382.293 455.78 381.473 455.432 380.929 454.944C380.385 454.456 380.113 453.768 380.113 452.88C380.113 452.304 380.285 451.804 380.629 451.38C380.981 450.956 381.457 450.632 382.057 450.408C382.657 450.176 383.329 450.06 384.073 450.06ZM396.732 459.36C396.292 459.952 395.62 460.248 394.716 460.248C394.052 460.248 393.46 460.088 392.94 459.768C392.42 459.456 392.016 459.02 391.728 458.46C391.44 457.9 391.296 457.268 391.296 456.564C391.296 455.86 391.44 455.228 391.728 454.668C392.016 454.108 392.42 453.672 392.94 453.36C393.46 453.04 394.052 452.88 394.716 452.88C395.62 452.88 396.292 453.176 396.732 453.768V453.048H398.868V463.008H396.732V459.36ZM395.052 458.424C395.572 458.424 395.988 458.252 396.3 457.908C396.612 457.556 396.768 457.108 396.768 456.564C396.768 456.02 396.612 455.576 396.3 455.232C395.988 454.88 395.572 454.704 395.052 454.704C394.548 454.704 394.144 454.88 393.84 455.232C393.536 455.576 393.384 456.02 393.384 456.564C393.384 457.108 393.536 457.556 393.84 457.908C394.144 458.252 394.548 458.424 395.052 458.424ZM405.521 460.248C404.977 460.248 404.497 460.12 404.081 459.864C403.665 459.616 403.341 459.256 403.109 458.784C402.885 458.312 402.773 457.756 402.773 457.116V453.048H404.909V456.756C404.909 457.292 405.013 457.704 405.221 457.992C405.437 458.272 405.745 458.412 406.145 458.412C406.561 458.412 406.889 458.256 407.129 457.944C407.369 457.632 407.489 457.204 407.489 456.66V453.048H409.625V460.08H407.489V459.36C407.049 459.952 406.393 460.248 405.521 460.248ZM416.696 460.248C416.032 460.248 415.44 460.088 414.92 459.768C414.4 459.456 413.996 459.02 413.708 458.46C413.42 457.9 413.276 457.268 413.276 456.564C413.276 455.86 413.42 455.228 413.708 454.668C413.996 454.108 414.4 453.672 414.92 453.36C415.44 453.04 416.032 452.88 416.696 452.88C417.6 452.88 418.272 453.176 418.712 453.768V453.048H420.848V460.08H418.712V459.36C418.272 459.952 417.6 460.248 416.696 460.248ZM417.032 458.424C417.552 458.424 417.968 458.252 418.28 457.908C418.592 457.556 418.748 457.108 418.748 456.564C418.748 456.02 418.592 455.576 418.28 455.232C417.968 454.88 417.552 454.704 417.032 454.704C416.528 454.704 416.124 454.88 415.82 455.232C415.516 455.576 415.364 456.02 415.364 456.564C415.364 457.108 415.516 457.556 415.82 457.908C416.124 458.252 416.528 458.424 417.032 458.424ZM427.92 460.248C427.256 460.248 426.664 460.088 426.144 459.768C425.624 459.456 425.22 459.02 424.932 458.46C424.644 457.9 424.5 457.268 424.5 456.564C424.5 455.86 424.644 455.228 424.932 454.668C425.22 454.108 425.624 453.672 426.144 453.36C426.664 453.04 427.256 452.88 427.92 452.88C428.824 452.88 429.496 453.176 429.936 453.768V450H432.072V460.08H429.936V459.36C429.496 459.952 428.824 460.248 427.92 460.248ZM428.256 458.424C428.776 458.424 429.192 458.252 429.504 457.908C429.816 457.556 429.972 457.108 429.972 456.564C429.972 456.02 429.816 455.576 429.504 455.232C429.192 454.88 428.776 454.704 428.256 454.704C427.752 454.704 427.348 454.88 427.044 455.232C426.74 455.576 426.588 456.02 426.588 456.564C426.588 457.108 426.74 457.556 427.044 457.908C427.348 458.252 427.752 458.424 428.256 458.424Z" fill="white"/>
</g>
<g clip-path="url(#clip3_5_2)">
<rect width="174" height="38" transform="translate(459 436)" fill="#555555"/>
<path d="M475.019 450.3H478.775C479.615 450.3 480.335 450.448 480.935 450.744C481.543 451.04 482.007 451.456 482.327 451.992C482.647 452.528 482.807 453.156 482.807 453.876C482.807 454.604 482.647 455.24 482.327 455.784C482.007 456.32 481.543 456.736 480.935 457.032C480.335 457.328 479.615 457.476 478.775 457.476H477.203V460.08H475.019V450.3ZM478.679 455.544C479.295 455.544 479.771 455.4 480.107 455.112C480.451 454.824 480.623 454.412 480.623 453.876C480.623 453.34 480.451 452.932 480.107 452.652C479.771 452.372 479.295 452.232 478.679 452.232H477.203V455.544H478.679ZM486.264 450.3H488.448V455.748C488.448 456.532 488.652 457.164 489.06 457.644C489.476 458.116 490.036 458.352 490.74 458.352C491.444 458.352 492 458.116 492.408 457.644C492.824 457.164 493.032 456.532 493.032 455.748V450.3H495.216V455.748C495.216 456.66 495.028 457.464 494.652 458.16C494.284 458.848 493.76 459.38 493.08 459.756C492.408 460.132 491.628 460.32 490.74 460.32C489.852 460.32 489.068 460.132 488.388 459.756C487.716 459.38 487.192 458.848 486.816 458.16C486.448 457.464 486.264 456.66 486.264 455.748V450.3ZM501.409 450.3V458.148H506.293V460.08H499.225V450.3H501.409ZM511.977 450.3V458.148H516.861V460.08H509.793V450.3H511.977ZM531.944 460.08L530.048 456.996H528.308V460.08H526.124V450.3H530.06C530.876 450.3 531.58 450.44 532.172 450.72C532.764 450.992 533.216 451.38 533.528 451.884C533.84 452.388 533.996 452.976 533.996 453.648C533.996 454.32 533.84 454.908 533.528 455.412C533.224 455.908 532.784 456.292 532.208 456.564L534.476 460.08H531.944ZM528.308 455.064H529.964C530.548 455.064 531 454.944 531.32 454.704C531.648 454.456 531.812 454.104 531.812 453.648C531.812 453.192 531.648 452.844 531.32 452.604C531 452.356 530.548 452.232 529.964 452.232H528.308V455.064ZM537.887 450.3H545.159V452.196H540.071V454.188H544.739V456.084H540.071V458.184H545.267V460.08H537.887V450.3ZM559.122 455.184C559.122 455.872 559.002 456.52 558.762 457.128C558.53 457.728 558.198 458.256 557.766 458.712L559.086 460.38L557.346 461.712L555.93 459.936C555.298 460.192 554.602 460.32 553.842 460.32C552.842 460.32 551.938 460.096 551.13 459.648C550.33 459.208 549.702 458.6 549.246 457.824C548.79 457.04 548.562 456.16 548.562 455.184C548.562 454.208 548.79 453.332 549.246 452.556C549.702 451.772 550.33 451.16 551.13 450.72C551.938 450.272 552.842 450.048 553.842 450.048C554.842 450.048 555.742 450.272 556.542 450.72C557.35 451.16 557.982 451.772 558.438 452.556C558.894 453.332 559.122 454.208 559.122 455.184ZM553.842 458.352C554.122 458.352 554.374 458.324 554.598 458.268L553.326 456.66L555.078 455.316L556.422 457.008C556.766 456.472 556.938 455.864 556.938 455.184C556.938 454.576 556.802 454.032 556.53 453.552C556.266 453.072 555.898 452.696 555.426 452.424C554.954 452.152 554.426 452.016 553.842 452.016C553.258 452.016 552.73 452.152 552.258 452.424C551.786 452.696 551.414 453.072 551.142 453.552C550.878 454.032 550.746 454.576 550.746 455.184C550.746 455.784 550.878 456.328 551.142 456.816C551.414 457.296 551.786 457.672 552.258 457.944C552.73 458.216 553.258 458.352 553.842 458.352ZM562.7 450.3H564.884V455.748C564.884 456.532 565.088 457.164 565.496 457.644C565.912 458.116 566.472 458.352 567.176 458.352C567.88 458.352 568.436 458.116 568.844 457.644C569.26 457.164 569.468 456.532 569.468 455.748V450.3H571.652V455.748C571.652 456.66 571.464 457.464 571.088 458.16C570.72 458.848 570.196 459.38 569.516 459.756C568.844 460.132 568.064 460.32 567.176 460.32C566.288 460.32 565.504 460.132 564.824 459.756C564.152 459.38 563.628 458.848 563.252 458.16C562.884 457.464 562.7 456.66 562.7 455.748V450.3ZM575.662 450.3H582.934V452.196H577.846V454.188H582.514V456.084H577.846V458.184H583.042V460.08H575.662V450.3ZM590.713 450.06C591.433 450.06 592.085 450.196 592.669 450.468C593.253 450.74 593.717 451.12 594.061 451.608C594.413 452.088 594.605 452.636 594.637 453.252H592.381C592.317 452.82 592.129 452.484 591.817 452.244C591.505 452.004 591.089 451.884 590.569 451.884C590.073 451.884 589.685 451.976 589.405 452.16C589.125 452.336 588.985 452.576 588.985 452.88C588.985 453.12 589.073 453.316 589.249 453.468C589.425 453.62 589.693 453.756 590.053 453.876C590.421 453.988 590.953 454.116 591.649 454.26C592.729 454.484 593.501 454.856 593.965 455.376C594.437 455.888 594.673 456.532 594.673 457.308C594.673 457.916 594.497 458.448 594.145 458.904C593.801 459.36 593.329 459.708 592.729 459.948C592.129 460.196 591.461 460.32 590.725 460.32C589.925 460.32 589.205 460.18 588.565 459.9C587.933 459.628 587.429 459.236 587.053 458.724C586.685 458.212 586.485 457.612 586.453 456.924H588.697C588.761 457.396 588.985 457.776 589.369 458.064C589.761 458.344 590.265 458.484 590.881 458.484C591.329 458.484 591.697 458.384 591.985 458.184C592.281 457.984 592.429 457.724 592.429 457.404C592.429 457.148 592.349 456.936 592.189 456.768C592.037 456.6 591.789 456.456 591.445 456.336C591.109 456.216 590.637 456.1 590.029 455.988C588.933 455.78 588.113 455.432 587.569 454.944C587.025 454.456 586.753 453.768 586.753 452.88C586.753 452.304 586.925 451.804 587.269 451.38C587.621 450.956 588.097 450.632 588.697 450.408C589.297 450.176 589.969 450.06 590.713 450.06ZM606.219 452.232H603.039V460.08H600.855V452.232H597.675V450.3H606.219V452.232ZM613.466 450.06C614.186 450.06 614.838 450.196 615.422 450.468C616.006 450.74 616.47 451.12 616.814 451.608C617.166 452.088 617.358 452.636 617.39 453.252H615.134C615.07 452.82 614.882 452.484 614.57 452.244C614.258 452.004 613.842 451.884 613.322 451.884C612.826 451.884 612.438 451.976 612.158 452.16C611.878 452.336 611.738 452.576 611.738 452.88C611.738 453.12 611.826 453.316 612.002 453.468C612.178 453.62 612.446 453.756 612.806 453.876C613.174 453.988 613.706 454.116 614.402 454.26C615.482 454.484 616.254 454.856 616.718 455.376C617.19 455.888 617.426 456.532 617.426 457.308C617.426 457.916 617.25 458.448 616.898 458.904C616.554 459.36 616.082 459.708 615.482 459.948C614.882 460.196 614.214 460.32 613.478 460.32C612.678 460.32 611.958 460.18 611.318 459.9C610.686 459.628 610.182 459.236 609.806 458.724C609.438 458.212 609.238 457.612 609.206 456.924H611.45C611.514 457.396 611.738 457.776 612.122 458.064C612.514 458.344 613.018 458.484 613.634 458.484C614.082 458.484 614.45 458.384 614.738 458.184C615.034 457.984 615.182 457.724 615.182 457.404C615.182 457.148 615.102 456.936 614.942 456.768C614.79 456.6 614.542 456.456 614.198 456.336C613.862 456.216 613.39 456.1 612.782 455.988C611.686 455.78 610.866 455.432 610.322 454.944C609.778 454.456 609.506 453.768 609.506 452.88C609.506 452.304 609.678 451.804 610.022 451.38C610.374 450.956 610.85 450.632 611.45 450.408C612.05 450.176 612.722 450.06 613.466 450.06Z" fill="white"/>
<rect width="107" height="38" transform="translate(633 436)" fill="#C4C4C4"/>
<path d="M652.352 450.036C653.024 450.036 653.62 450.16 654.14 450.408C654.66 450.656 655.064 451.004 655.352 451.452C655.64 451.892 655.784 452.4 655.784 452.976C655.784 453.336 655.704 453.668 655.544 453.972C655.392 454.276 655.188 454.524 654.932 454.716C654.684 454.908 654.42 455.028 654.14 455.076C654.452 455.124 654.752 455.244 655.04 455.436C655.336 455.628 655.576 455.88 655.76 456.192C655.952 456.504 656.048 456.86 656.048 457.26C656.048 457.876 655.888 458.416 655.568 458.88C655.248 459.336 654.812 459.688 654.26 459.936C653.716 460.192 653.104 460.32 652.424 460.32C651.36 460.32 650.508 460.044 649.868 459.492C649.228 458.94 648.868 458.188 648.788 457.236H650.936C650.976 457.636 651.12 457.944 651.368 458.16C651.624 458.376 651.976 458.484 652.424 458.484C652.872 458.484 653.232 458.372 653.504 458.148C653.784 457.924 653.924 457.632 653.924 457.272C653.924 456.872 653.768 456.564 653.456 456.348C653.152 456.132 652.74 456.024 652.22 456.024H651.248V454.248H652.22C652.66 454.248 653.004 454.14 653.252 453.924C653.508 453.7 653.636 453.4 653.636 453.024C653.636 452.664 653.52 452.38 653.288 452.172C653.064 451.964 652.748 451.86 652.34 451.86C651.94 451.86 651.632 451.996 651.416 452.268C651.2 452.54 651.092 452.864 651.092 453.24H648.944C648.944 452.624 649.088 452.076 649.376 451.596C649.664 451.108 650.068 450.728 650.588 450.456C651.108 450.176 651.696 450.036 652.352 450.036ZM663.006 460.308C662.326 460.308 661.702 460.164 661.134 459.876C660.574 459.596 660.126 459.2 659.79 458.688C659.462 458.168 659.298 457.568 659.298 456.888C659.298 456.44 659.37 456.02 659.514 455.628C659.658 455.228 659.882 454.784 660.186 454.296L662.706 450.3H665.178L662.958 453.612C663.038 453.58 663.13 453.564 663.234 453.564C663.866 453.564 664.446 453.704 664.974 453.984C665.51 454.264 665.934 454.656 666.246 455.16C666.558 455.664 666.714 456.236 666.714 456.876C666.714 457.532 666.546 458.12 666.21 458.64C665.882 459.16 665.434 459.568 664.866 459.864C664.306 460.16 663.686 460.308 663.006 460.308ZM663.006 458.46C663.486 458.46 663.87 458.312 664.158 458.016C664.446 457.72 664.59 457.348 664.59 456.9C664.59 456.452 664.446 456.08 664.158 455.784C663.87 455.488 663.486 455.34 663.006 455.34C662.526 455.34 662.142 455.488 661.854 455.784C661.566 456.08 661.422 456.452 661.422 456.9C661.422 457.348 661.566 457.72 661.854 458.016C662.142 458.312 662.526 458.46 663.006 458.46ZM680.817 460.32C679.817 460.32 678.913 460.096 678.105 459.648C677.305 459.208 676.677 458.6 676.221 457.824C675.765 457.04 675.537 456.16 675.537 455.184C675.537 454.208 675.765 453.332 676.221 452.556C676.677 451.772 677.305 451.16 678.105 450.72C678.913 450.272 679.817 450.048 680.817 450.048C681.817 450.048 682.717 450.272 683.517 450.72C684.325 451.16 684.957 451.772 685.413 452.556C685.869 453.332 686.097 454.208 686.097 455.184C686.097 456.16 685.869 457.04 685.413 457.824C684.957 458.6 684.325 459.208 683.517 459.648C682.717 460.096 681.817 460.32 680.817 460.32ZM680.817 458.352C681.401 458.352 681.929 458.216 682.401 457.944C682.873 457.672 683.241 457.296 683.505 456.816C683.777 456.328 683.913 455.784 683.913 455.184C683.913 454.576 683.777 454.032 683.505 453.552C683.241 453.072 682.873 452.696 682.401 452.424C681.929 452.152 681.401 452.016 680.817 452.016C680.233 452.016 679.705 452.152 679.233 452.424C678.761 452.696 678.389 453.072 678.117 453.552C677.853 454.032 677.721 454.576 677.721 455.184C677.721 455.784 677.853 456.328 678.117 456.816C678.389 457.296 678.761 457.672 679.233 457.944C679.705 458.216 680.233 458.352 680.817 458.352ZM689.794 450.3H693.55C694.39 450.3 695.11 450.448 695.71 450.744C696.318 451.04 696.782 451.456 697.102 451.992C697.422 452.528 697.582 453.156 697.582 453.876C697.582 454.604 697.422 455.24 697.102 455.784C696.782 456.32 696.318 456.736 695.71 457.032C695.11 457.328 694.39 457.476 693.55 457.476H691.978V460.08H689.794V450.3ZM693.454 455.544C694.07 455.544 694.546 455.4 694.882 455.112C695.226 454.824 695.398 454.412 695.398 453.876C695.398 453.34 695.226 452.932 694.882 452.652C694.546 452.372 694.07 452.232 693.454 452.232H691.978V455.544H693.454ZM701.159 450.3H708.431V452.196H703.343V454.188H708.011V456.084H703.343V458.184H708.539V460.08H701.159V450.3ZM712.407 450.3H714.231L719.115 456.18V450.18H721.299V459.96H719.475L714.591 454.08V460.08H712.407V450.3Z" fill="white"/>
</g>
<g clip-path="url(#clip4_5_2)">
<rect width="93" height="38" transform="translate(751 436)" fill="#555555"/>
<path d="M769.376 450.3V460.08H767.192V450.3H769.376ZM777.31 450.06C778.03 450.06 778.682 450.196 779.266 450.468C779.85 450.74 780.314 451.12 780.658 451.608C781.01 452.088 781.202 452.636 781.234 453.252H778.978C778.914 452.82 778.726 452.484 778.414 452.244C778.102 452.004 777.686 451.884 777.166 451.884C776.67 451.884 776.282 451.976 776.002 452.16C775.722 452.336 775.582 452.576 775.582 452.88C775.582 453.12 775.67 453.316 775.846 453.468C776.022 453.62 776.29 453.756 776.65 453.876C777.018 453.988 777.55 454.116 778.246 454.26C779.326 454.484 780.098 454.856 780.562 455.376C781.034 455.888 781.27 456.532 781.27 457.308C781.27 457.916 781.094 458.448 780.742 458.904C780.398 459.36 779.926 459.708 779.326 459.948C778.726 460.196 778.058 460.32 777.322 460.32C776.522 460.32 775.802 460.18 775.162 459.9C774.53 459.628 774.026 459.236 773.65 458.724C773.282 458.212 773.082 457.612 773.05 456.924H775.294C775.358 457.396 775.582 457.776 775.966 458.064C776.358 458.344 776.862 458.484 777.478 458.484C777.926 458.484 778.294 458.384 778.582 458.184C778.878 457.984 779.026 457.724 779.026 457.404C779.026 457.148 778.946 456.936 778.786 456.768C778.634 456.6 778.386 456.456 778.042 456.336C777.706 456.216 777.234 456.1 776.626 455.988C775.53 455.78 774.71 455.432 774.166 454.944C773.622 454.456 773.35 453.768 773.35 452.88C773.35 452.304 773.522 451.804 773.866 451.38C774.218 450.956 774.694 450.632 775.294 450.408C775.894 450.176 776.566 450.06 777.31 450.06ZM788.757 450.06C789.477 450.06 790.129 450.196 790.713 450.468C791.297 450.74 791.761 451.12 792.105 451.608C792.457 452.088 792.649 452.636 792.681 453.252H790.425C790.361 452.82 790.173 452.484 789.861 452.244C789.549 452.004 789.133 451.884 788.613 451.884C788.117 451.884 787.729 451.976 787.449 452.16C787.169 452.336 787.029 452.576 787.029 452.88C787.029 453.12 787.117 453.316 787.293 453.468C787.469 453.62 787.737 453.756 788.097 453.876C788.465 453.988 788.997 454.116 789.693 454.26C790.773 454.484 791.545 454.856 792.009 455.376C792.481 455.888 792.717 456.532 792.717 457.308C792.717 457.916 792.541 458.448 792.189 458.904C791.845 459.36 791.373 459.708 790.773 459.948C790.173 460.196 789.505 460.32 788.769 460.32C787.969 460.32 787.249 460.18 786.609 459.9C785.977 459.628 785.473 459.236 785.097 458.724C784.729 458.212 784.529 457.612 784.497 456.924H786.741C786.805 457.396 787.029 457.776 787.413 458.064C787.805 458.344 788.309 458.484 788.925 458.484C789.373 458.484 789.741 458.384 790.029 458.184C790.325 457.984 790.473 457.724 790.473 457.404C790.473 457.148 790.393 456.936 790.233 456.768C790.081 456.6 789.833 456.456 789.489 456.336C789.153 456.216 788.681 456.1 788.073 455.988C786.977 455.78 786.157 455.432 785.613 454.944C785.069 454.456 784.797 453.768 784.797 452.88C784.797 452.304 784.969 451.804 785.313 451.38C785.665 450.956 786.141 450.632 786.741 450.408C787.341 450.176 788.013 450.06 788.757 450.06ZM796.28 450.3H798.464V455.748C798.464 456.532 798.668 457.164 799.076 457.644C799.492 458.116 800.052 458.352 800.756 458.352C801.46 458.352 802.016 458.116 802.424 457.644C802.84 457.164 803.048 456.532 803.048 455.748V450.3H805.232V455.748C805.232 456.66 805.044 457.464 804.668 458.16C804.3 458.848 803.776 459.38 803.096 459.756C802.424 460.132 801.644 460.32 800.756 460.32C799.868 460.32 799.084 460.132 798.404 459.756C797.732 459.38 797.208 458.848 796.832 458.16C796.464 457.464 796.28 456.66 796.28 455.748V450.3ZM809.241 450.3H816.513V452.196H811.425V454.188H816.093V456.084H811.425V458.184H816.621V460.08H809.241V450.3ZM824.293 450.06C825.013 450.06 825.665 450.196 826.249 450.468C826.833 450.74 827.297 451.12 827.641 451.608C827.993 452.088 828.185 452.636 828.217 453.252H825.961C825.897 452.82 825.709 452.484 825.397 452.244C825.085 452.004 824.669 451.884 824.149 451.884C823.653 451.884 823.265 451.976 822.985 452.16C822.705 452.336 822.565 452.576 822.565 452.88C822.565 453.12 822.653 453.316 822.829 453.468C823.005 453.62 823.273 453.756 823.633 453.876C824.001 453.988 824.533 454.116 825.229 454.26C826.309 454.484 827.081 454.856 827.545 455.376C828.017 455.888 828.253 456.532 828.253 457.308C828.253 457.916 828.077 458.448 827.725 458.904C827.381 459.36 826.909 459.708 826.309 459.948C825.709 460.196 825.041 460.32 824.305 460.32C823.505 460.32 822.785 460.18 822.145 459.9C821.513 459.628 821.009 459.236 820.633 458.724C820.265 458.212 820.065 457.612 820.033 456.924H822.277C822.341 457.396 822.565 457.776 822.949 458.064C823.341 458.344 823.845 458.484 824.461 458.484C824.909 458.484 825.277 458.384 825.565 458.184C825.861 457.984 826.009 457.724 826.009 457.404C826.009 457.148 825.929 456.936 825.769 456.768C825.617 456.6 825.369 456.456 825.025 456.336C824.689 456.216 824.217 456.1 823.609 455.988C822.513 455.78 821.693 455.432 821.149 454.944C820.605 454.456 820.333 453.768 820.333 452.88C820.333 452.304 820.505 451.804 820.849 451.38C821.201 450.956 821.677 450.632 822.277 450.408C822.877 450.176 823.549 450.06 824.293 450.06Z" fill="white"/>
<rect width="104" height="38" transform="translate(844 436)" fill="#21BF48"/>
<path d="M863.016 450.036C863.736 450.036 864.356 450.168 864.876 450.432C865.404 450.696 865.808 451.06 866.088 451.524C866.368 451.988 866.508 452.516 866.508 453.108C866.508 453.46 866.44 453.804 866.304 454.14C866.176 454.468 865.952 454.844 865.632 455.268C865.32 455.684 864.876 456.188 864.3 456.78L862.896 458.232H866.7V460.08H859.704V458.832L862.908 455.532C863.46 454.964 863.84 454.5 864.048 454.14C864.256 453.772 864.36 453.436 864.36 453.132C864.36 452.756 864.248 452.464 864.024 452.256C863.808 452.04 863.472 451.932 863.016 451.932C862.592 451.932 862.256 452.076 862.008 452.364C861.768 452.652 861.648 452.996 861.648 453.396H859.5C859.5 452.764 859.648 452.192 859.944 451.68C860.248 451.168 860.664 450.768 861.192 450.48C861.728 450.184 862.336 450.036 863.016 450.036ZM873.467 450.036C874.139 450.036 874.735 450.16 875.255 450.408C875.775 450.656 876.179 451.004 876.467 451.452C876.755 451.892 876.899 452.4 876.899 452.976C876.899 453.336 876.819 453.668 876.659 453.972C876.507 454.276 876.303 454.524 876.047 454.716C875.799 454.908 875.535 455.028 875.255 455.076C875.567 455.124 875.867 455.244 876.155 455.436C876.451 455.628 876.691 455.88 876.875 456.192C877.067 456.504 877.163 456.86 877.163 457.26C877.163 457.876 877.003 458.416 876.683 458.88C876.363 459.336 875.927 459.688 875.375 459.936C874.831 460.192 874.219 460.32 873.539 460.32C872.475 460.32 871.623 460.044 870.983 459.492C870.343 458.94 869.983 458.188 869.903 457.236H872.051C872.091 457.636 872.235 457.944 872.483 458.16C872.739 458.376 873.091 458.484 873.539 458.484C873.987 458.484 874.347 458.372 874.619 458.148C874.899 457.924 875.039 457.632 875.039 457.272C875.039 456.872 874.883 456.564 874.571 456.348C874.267 456.132 873.855 456.024 873.335 456.024H872.363V454.248H873.335C873.775 454.248 874.119 454.14 874.367 453.924C874.623 453.7 874.751 453.4 874.751 453.024C874.751 452.664 874.635 452.38 874.403 452.172C874.179 451.964 873.863 451.86 873.455 451.86C873.055 451.86 872.747 451.996 872.531 452.268C872.315 452.54 872.207 452.864 872.207 453.24H870.059C870.059 452.624 870.203 452.076 870.491 451.596C870.779 451.108 871.183 450.728 871.703 450.456C872.223 450.176 872.811 450.036 873.467 450.036ZM891.505 460.32C890.505 460.32 889.601 460.096 888.793 459.648C887.993 459.208 887.365 458.6 886.909 457.824C886.453 457.04 886.225 456.16 886.225 455.184C886.225 454.208 886.453 453.332 886.909 452.556C887.365 451.772 887.993 451.16 888.793 450.72C889.601 450.272 890.505 450.048 891.505 450.048C892.505 450.048 893.405 450.272 894.205 450.72C895.013 451.16 895.645 451.772 896.101 452.556C896.557 453.332 896.785 454.208 896.785 455.184C896.785 456.16 896.557 457.04 896.101 457.824C895.645 458.6 895.013 459.208 894.205 459.648C893.405 460.096 892.505 460.32 891.505 460.32ZM891.505 458.352C892.089 458.352 892.617 458.216 893.089 457.944C893.561 457.672 893.929 457.296 894.193 456.816C894.465 456.328 894.601 455.784 894.601 455.184C894.601 454.576 894.465 454.032 894.193 453.552C893.929 453.072 893.561 452.696 893.089 452.424C892.617 452.152 892.089 452.016 891.505 452.016C890.921 452.016 890.393 452.152 889.921 452.424C889.449 452.696 889.077 453.072 888.805 453.552C888.541 454.032 888.409 454.576 888.409 455.184C888.409 455.784 888.541 456.328 888.805 456.816C889.077 457.296 889.449 457.672 889.921 457.944C890.393 458.216 890.921 458.352 891.505 458.352ZM900.483 450.3H904.239C905.079 450.3 905.799 450.448 906.399 450.744C907.007 451.04 907.471 451.456 907.791 451.992C908.111 452.528 908.271 453.156 908.271 453.876C908.271 454.604 908.111 455.24 907.791 455.784C907.471 456.32 907.007 456.736 906.399 457.032C905.799 457.328 905.079 457.476 904.239 457.476H902.667V460.08H900.483V450.3ZM904.143 455.544C904.759 455.544 905.235 455.4 905.571 455.112C905.915 454.824 906.087 454.412 906.087 453.876C906.087 453.34 905.915 452.932 905.571 452.652C905.235 452.372 904.759 452.232 904.143 452.232H902.667V455.544H904.143ZM911.848 450.3H919.12V452.196H914.032V454.188H918.7V456.084H914.032V458.184H919.228V460.08H911.848V450.3ZM923.095 450.3H924.919L929.803 456.18V450.18H931.987V459.96H930.163L925.279 454.08V460.08H923.095V450.3Z" fill="white"/>
</g>
</g>
<g clip-path="url(#clip5_5_2)">
<path d="M718.146 166.493C717.752 167.597 717.333 168.682 716.875 169.779C717.327 168.682 717.752 167.61 718.146 166.493Z" fill="#21BF48"/>
<path d="M721.759 151.078C721.627 152.255 721.457 153.419 721.254 154.582C721.451 153.419 721.621 152.255 721.759 151.078Z" fill="#21BF48"/>
<path d="M722.247 140.001C722.247 138.871 722.156 137.746 722.073 136.616C722.164 137.714 722.222 138.838 722.247 140.001Z" fill="#21BF48"/>
<path d="M722.264 144.005C722.264 143.039 722.264 142.066 722.264 141.1C722.296 142.066 722.288 143.032 722.264 144.005Z" fill="#21BF48"/>
<path d="M825 97.7309V152.826C825 180.948 799.484 204.7 769.276 204.7C749.135 204.7 731.088 194.083 721.332 178.648C728.112 165.96 731.128 150.814 729.855 135.405C728.577 119.812 722.992 105.31 714.022 94.1087C714.871 89.5114 717.297 85.3567 720.878 82.3646C724.461 79.3725 728.976 77.7318 733.637 77.7269C738.925 77.7339 743.996 79.8439 747.734 83.594C751.472 87.3443 753.575 92.4283 753.58 97.7309V152.826C753.58 158.322 760.431 164.705 769.268 164.705C777.255 164.705 785.088 158.821 785.088 152.826V97.7309C785.09 95.1008 785.61 92.497 786.616 90.0682C787.622 87.6392 789.096 85.433 790.953 83.5754C792.81 81.7178 795.013 80.2452 797.438 79.2417C799.862 78.2382 802.46 77.7234 805.083 77.7269C810.367 77.7408 815.429 79.8539 819.163 83.6033C822.896 87.3528 824.994 92.4329 825 97.7309Z" fill="#21BF48"/>
<path d="M478.602 107.987C473.375 118.279 470.665 129.669 470.696 141.218C470.677 156.053 475.154 170.544 483.532 182.771V183.888C483.527 189.192 481.423 194.277 477.683 198.028C473.943 201.778 468.872 203.887 463.582 203.893C458.294 203.886 453.225 201.776 449.486 198.025C445.747 194.275 443.645 189.191 443.639 183.888V161.215H414.905V183.888C414.902 189.192 412.8 194.277 409.061 198.027C405.321 201.778 400.251 203.887 394.962 203.893C389.674 203.886 384.605 201.776 380.866 198.025C377.127 194.275 375.025 189.191 375.019 183.888V98.5409C375.026 93.2394 377.13 88.157 380.868 84.4083C384.607 80.6596 389.675 78.5504 394.962 78.5435C400.25 78.5487 405.319 80.6573 409.058 84.4064C412.797 88.1555 414.9 93.2388 414.905 98.5409V121.214H443.639V98.5409C443.646 93.2394 445.75 88.157 449.488 84.4083C453.227 80.6596 458.295 78.5504 463.582 78.5435C468.871 78.5487 473.941 80.6571 477.681 84.406C481.421 88.1549 483.525 93.2383 483.532 98.5409V99.6783C481.708 102.336 480.061 105.112 478.602 107.987Z" fill="#21BF48"/>
<path d="M655.983 118.366C655.099 118.366 654.2 118.366 653.297 118.366C654.429 118.366 655.55 118.366 656.653 118.366H655.983ZM687.871 199.736C688.729 199.361 689.576 198.973 690.403 198.559C689.576 198.967 688.729 199.361 687.871 199.736ZM716.875 169.753C717.333 168.681 717.752 167.597 718.146 166.466C717.752 167.61 717.327 168.681 716.875 169.753ZM721.254 154.581C721.457 153.417 721.627 152.254 721.759 151.077C721.621 152.254 721.451 153.417 721.254 154.581ZM722.073 136.582C722.158 137.712 722.217 138.836 722.251 139.967C722.224 138.836 722.166 137.712 722.073 136.582ZM722.277 141.098C722.277 142.064 722.277 143.037 722.277 144.003C722.29 143.03 722.296 142.064 722.277 141.098Z" fill="#21BF48"/>
<path d="M722.277 141.098C722.164 129.395 719.195 117.898 713.629 107.611C712.199 105.031 710.588 102.555 708.811 100.202C708.083 99.2558 707.342 98.3288 706.561 97.4282C703.071 93.365 699 89.8427 694.479 86.9759C693.148 86.1272 691.774 85.3461 690.363 84.6356C689.111 83.9783 687.818 83.3998 686.513 82.8541C680.406 80.3725 673.921 78.952 667.339 78.6535C660.088 78.5417 652.194 78.6074 644.76 78.476C636.571 78.5417 628.259 78.121 620.15 79.1859C610.808 81.4671 604.455 90.6112 605.156 100.222C621.827 124.019 621.5 158.9 605.156 182.243C604.942 185.794 605.619 189.342 607.122 192.564C608.752 195.958 611.303 198.821 614.483 200.826C617.663 202.831 621.343 203.895 625.1 203.897H641.011C662.539 203.897 673.134 204.128 678.712 202.865C689.497 200.266 699.236 194.441 706.641 186.161C707.297 185.451 707.9 184.722 708.495 183.972C709.093 183.223 709.571 182.592 710.095 181.888C718.586 170.167 722.479 155.495 722.277 141.098ZM682.796 143.287C682.403 147.573 681.486 151.932 679.153 155.587C678.419 156.754 677.536 157.821 676.53 158.762C674.564 160.517 672.233 161.811 669.705 162.548C661.654 164.902 653.355 163.863 645.028 163.916V118.556C647.789 118.556 650.568 118.445 653.321 118.405C663.904 118.129 676.889 118.714 680.975 130.481C682.46 134.577 683.08 138.938 682.796 143.287Z" fill="#21BF48"/>
<path d="M580.945 68.9048C581.134 69.1435 581.3 69.3988 581.444 69.6674C581.302 69.3983 581.134 69.143 580.945 68.9048ZM506.458 70.5351C506.541 70.2334 506.652 69.9405 506.792 69.6608C506.65 69.9393 506.537 70.2324 506.458 70.5351Z" fill="#21BF48"/>
<path d="M605.13 116.993C600.701 105.851 593.335 96.1274 583.817 88.8635C583.87 88.5085 582.021 71.8439 582.013 71.4824C581.883 70.2579 581.304 69.1253 580.391 68.3025C579.478 67.4797 578.292 67.0248 577.065 67.0253C574.775 66.4271 562.897 76.6165 560.943 77.6157C549.934 74.7101 538.361 74.7101 527.351 77.6157C525.306 76.5573 513.584 66.4797 511.23 67.0253C510.002 67.0275 508.818 67.4832 507.904 68.3053C506.99 69.1275 506.41 70.2585 506.274 71.4824C506.274 71.8505 504.445 88.4887 504.471 88.8568C455.08 126.084 481.375 206.988 544.16 206.988C589.815 207.888 622.509 158.348 605.13 116.993ZM544.16 166.954C510.463 166.355 510.358 116.164 544.029 115.415C577.865 115.895 577.988 166.368 544.16 166.986V166.954Z" fill="#21BF48"/>
</g>
</g>
<defs>
<clipPath id="clip0_5_2">
<rect width="1200" height="580" fill="white"/>
</clipPath>
<clipPath id="clip1_5_2">
<rect width="695" height="38" fill="white" transform="translate(253 436)"/>
</clipPath>
<clipPath id="clip2_5_2">
<rect width="195" height="38" fill="white" transform="translate(253 436)"/>
</clipPath>
<clipPath id="clip3_5_2">
<rect width="281" height="38" fill="white" transform="translate(459 436)"/>
</clipPath>
<clipPath id="clip4_5_2">
<rect width="197" height="38" fill="white" transform="translate(751 436)"/>
</clipPath>
<clipPath id="clip5_5_2">
<rect width="450" height="140" fill="white" transform="translate(375 67)"/>
</clipPath>
</defs>
</svg>
